<?xml version="1.0" encoding="UTF-8"?>
<svg width="97px" height="62px" viewBox="0 0 97 62" version="1.1" xmlns="http://www.w3.org/2000/svg" xmlns:xlink="http://www.w3.org/1999/xlink">
    <!-- Generator: sketchtool 53.1 (72631) - https://sketchapp.com -->
    <title>A2CE77A7-B0C4-49AD-9F44-E6B89DBCF472</title>
    <desc>Created with sketchtool.</desc>
    <g id="Mobile-R2" stroke="none" stroke-width="1" fill="none" fill-rule="evenodd">
        <g id="2ab" transform="translate(-29.000000, -301.000000)">
            <g id="Group" transform="translate(30.000000, 302.000000)">
                <path d="M45.164941,56.8211214 C76.3408605,46.7904217 88.3598075,-6.84117607 59.9324818,10.384232 C31.5051561,27.60964 5.32674992,50.118934 10.7073458,55.450058 C16.0314296,60.7251896 37.8226531,59.1834667 45.164941,56.8211214 Z" id="Oval" fill="#ADE9E8"></path>
                <g id="home" fill="#F9A61E" fill-rule="nonzero" stroke="#F9A61E" stroke-width="0.5">
                    <path d="M39.2140402,27 C38.7800865,27 38.4283566,27.3481771 38.4283566,27.7777474 L38.4283566,45.6666667 C38.4283566,46.096237 38.0765346,46.4444141 37.642673,46.4444141 L29.7855608,46.4444141 L29.7855608,34.7777474 C29.7855608,33.4891276 28.7301869,32.4444141 27.428418,32.4444141 L19.5713058,32.4444141 C18.2695368,32.4444141 17.2141629,33.4890365 17.2141629,34.7777474 L17.2141629,46.4444141 L9.35705078,46.4444141 C8.9230971,46.4444141 8.57136719,46.096237 8.57136719,45.6666667 L8.57136719,27.7777474 C8.57136719,27.3481771 8.21963728,27 7.78568359,27 C7.35172991,27 7,27.3481771 7,27.7777474 L7,45.6666667 C7,46.9552865 8.05528181,48 9.35714286,48 L37.6428571,48 C38.9446261,48 40,46.9553776 40,45.6666667 L40,27.7777474 C39.9998158,27.3481771 39.6479939,27 39.2140402,27 Z M28.2141016,46.4444141 L18.7855301,46.4444141 L18.7855301,34.7777474 C18.7855301,34.3481771 19.13726,34 19.5712137,34 L27.4283259,34 C27.8622796,34 28.2140095,34.3481771 28.2140095,34.7777474 L28.2141016,46.4444141 L28.2141016,46.4444141 Z" id="Shape"></path>
                    <path d="M43.2943009,21.6253605 L23.7240699,0.736071128 C22.7685567,-0.245357043 21.2289765,-0.245357043 20.2734633,0.736071128 L0.705699103,21.6253605 C0.00407859886,22.375303 -0.194785036,23.4886574 0.201329313,24.449426 C0.568980354,25.389535 1.45105822,26.0034195 2.42943694,25.9999762 L2.70629004,25.9999762 C3.28532857,25.9941719 3.84292474,25.7721306 4.27699016,25.3745814 C4.33477068,25.3355249 4.38894584,25.2911561 4.43894638,25.2419666 L21.998814,6.48582749 L39.5716799,25.2520012 C39.6185495,25.298141 39.6692142,25.339952 39.7231047,25.3770409 C40.1568855,25.773016 40.713438,25.9940735 41.291338,25.9999762 L41.5681911,25.9999762 C42.5474237,26.0044033 43.430735,25.3904204 43.7986707,24.449426 C44.194785,23.4886574 43.9959214,22.375303 43.2943009,21.6253605 Z M42.3073832,23.7962883 C42.1870783,24.1109041 41.8946652,24.3184836 41.5681911,24.3209431 L41.291338,24.3209431 C41.0771042,24.3210415 40.8722633,24.2299426 40.7246336,24.069093 C40.7189409,24.0624033 40.7100224,24.0607308 40.7044246,24.0548281 C40.698732,24.0489253 40.6931342,24.0396777 40.6858286,24.0338734 L22.5792757,4.69601968 L22.5695982,4.68932991 L22.5655185,4.67673741 C22.5265237,4.64446912 22.4844929,4.61633275 22.4399953,4.59282018 C22.3980593,4.55809242 22.3527078,4.52798847 22.3047946,4.50300022 C22.2550787,4.48637419 22.2037498,4.47506061 22.1517569,4.46945301 C22.0545072,4.43256091 21.9477698,4.43256091 21.8506151,4.46945301 C21.7986221,4.47515899 21.7473882,4.48637419 21.6975774,4.50300022 C21.6496641,4.52808685 21.6043126,4.5581908 21.5623767,4.59282018 C21.517879,4.61633275 21.4758482,4.64446912 21.4368535,4.67673741 L21.4304018,4.68677206 L21.4207243,4.69346183 L3.3102814,24.0338734 C3.30297582,24.0397761 3.29974998,24.0481383 3.29244439,24.0540411 C3.28513881,24.0599438 3.27707421,24.0624033 3.27138155,24.0691914 C3.12365699,24.230041 2.91881606,24.3211398 2.70467712,24.3210415 L2.42943694,24.3210415 C2.10296282,24.318582 1.81064466,24.1110024 1.69024487,23.7963866 C1.54650518,23.456881 1.6152915,23.0609058 1.86434543,22.7948892 L1.86263763,22.7948892 L21.4320147,1.90638684 C21.5812573,1.75045624 21.7843905,1.66270224 21.9963472,1.66270224 C22.2082091,1.66270224 22.4113422,1.75045624 22.5606797,1.90638684 L42.1332826,22.7947908 C42.3823366,23.0609058 42.4511229,23.4567826 42.3073832,23.7962883 Z" id="Shape"></path>
                    <path d="M25.6428637,29 C26.9446291,29 28,27.8634401 28,26.4615308 L28,20.5384692 C28,19.1364607 26.9446291,18 25.6428637,18 L19.3571363,18 C18.0553709,18 17,19.1364607 17,20.5384692 L17,26.4615308 C17,27.8634401 18.0552789,29 19.3571363,29 L25.6428637,29 Z M18.5714549,26.4615308 L18.5714549,20.5384692 C18.5714549,20.071133 18.9231838,19.6923458 19.3571363,19.6923458 L25.6428637,19.6923458 C26.0768162,19.6923458 26.4285451,20.0712322 26.4285451,20.5384692 L26.4285451,26.4615308 C26.4285451,26.928867 26.0767241,27.3076542 25.6428637,27.3076542 L19.3571363,27.3076542 C18.9231838,27.3076542 18.5714549,26.9287678 18.5714549,26.4615308 Z" id="Shape"></path>
                    <path d="M20,40 L19,40 C18.4476737,40 18,40.2238369 18,40.5 C18,40.7761631 18.4476737,41 19,41 L20,41 C20.5523263,41 21,40.7761631 21,40.5 C21,40.2238369 20.5522091,40 20,40 Z" id="Path"></path>
                </g>
                <g id="couch" transform="translate(47.000000, 27.000000)" fill="#F9A61E" fill-rule="nonzero" stroke="#F9A61E" stroke-width="0.5">
                    <path d="M43.2,7.46210208 L24.8,7.46210208 C20.7432,7.46210208 19.944,6.47848111 18.492,4.69329966 C18.3192,4.48075845 18.1408,4.260803 17.9488,4.03343333 C13.9976,-0.658125658 7.2624,-1.35918215 2.936,2.46903113 C2.7504,2.63379176 2.5752,2.80267141 2.4096,2.97649388 C0.8552,4.60268131 0,6.8673162 0,9.35355413 L0,22.7576553 C0,25.6763899 1.9944,28.1206139 4.6536,28.7302282 L4.016,32.0147314 C3.9688,32.2569296 4.0304,32.5081895 4.1816,32.698488 C4.3336,32.8896104 4.56,33 4.8,33 L6.4,33 C6.6128,33 6.816,32.9135007 6.9656,32.7586257 L10.7312,28.8809842 L37.2688,28.8809842 L41.0344,32.7586257 C41.1848,32.9135007 41.3872,33 41.6,33 L43.2,33 C43.44,33 43.6664,32.8896104 43.8184,32.698488 C43.9696,32.5081895 44.0312,32.2569296 43.984,32.0147314 L43.3464,28.731052 C46.0048,28.1214377 48,25.6763899 48,22.7584791 L48,12.404921 C48,9.67895638 45.8472,7.46210208 43.2,7.46210208 Z M42.0536,22.2905589 L5.9464,22.2905589 C4.7496,22.2905589 3.6328,21.796277 2.8016,20.8983316 C2.7296,20.8208941 2.6448,20.7615803 2.5528,20.7187425 C2.644,20.6017625 2.7448,20.4921966 2.8472,20.3842784 C2.908,20.3208456 2.9608,20.2516461 3.0248,20.1915085 C3.2176,20.0127432 3.4248,19.8479826 3.6488,19.7046408 C4.4656,20.1148948 5.716,20.5894054 7.0328,20.9419932 C7.0352,20.942817 7.0376,20.942817 7.04,20.9436408 C7.204,20.9873023 7.3688,21.0293163 7.5344,21.0688589 C7.5744,21.0787445 7.6136,21.0878063 7.6536,21.097692 C7.7968,21.1314679 7.9392,21.1619486 8.0824,21.1916055 C8.1368,21.2031388 8.1904,21.2138482 8.2448,21.2245576 C8.3824,21.2517432 8.5192,21.2764572 8.656,21.2995237 C8.7088,21.3085856 8.7608,21.3168236 8.8128,21.3250616 C8.9552,21.3473043 9.096,21.3670756 9.236,21.3843755 C9.2752,21.3893183 9.3136,21.3934373 9.352,21.3975563 C9.504,21.4148562 9.6536,21.428037 9.8008,21.4379227 C9.8232,21.4395703 9.8456,21.4403941 9.868,21.4420417 C10.0272,21.4519273 10.1832,21.4568701 10.3352,21.4576939 C10.3384,21.4576939 10.3424,21.4576939 10.3464,21.4576939 C10.3504,21.4576939 10.3536,21.4568701 10.3576,21.4568701 C10.5624,21.4568701 10.7576,21.4469845 10.9448,21.428037 C10.9544,21.4272132 10.9632,21.4263894 10.9728,21.4255656 C11.1632,21.4049705 11.3448,21.3761374 11.5128,21.3341235 C11.5144,21.3332997 11.5168,21.3332997 11.5184,21.3332997 C11.6816,21.2921095 11.836,21.2426813 11.9736,21.1784247 C11.976,21.1776009 11.9784,21.1751295 11.9808,21.1743057 C12.1336,21.1051062 12.2728,21.0235497 12.3928,20.9255171 C12.4696,20.8620843 12.568,20.7689945 12.6624,20.6429526 L35.3392,20.6429526 C35.4336,20.7689945 35.532,20.8620843 35.6088,20.9255171 C35.7288,21.0235497 35.8672,21.1051062 36.0208,21.1743057 C36.0232,21.1751295 36.0256,21.1776009 36.028,21.1784247 C36.3096,21.3102332 36.6544,21.3868469 37.0352,21.4272132 C37.0392,21.4272132 37.0424,21.428037 37.0464,21.428037 C37.3888,21.4634606 37.7624,21.465932 38.1576,21.4412179 C38.1648,21.4412179 38.172,21.4403941 38.1784,21.4395703 C38.3416,21.4288608 38.5064,21.4140324 38.6752,21.3942611 C38.6952,21.3917897 38.716,21.3893183 38.736,21.3868469 C38.8944,21.3678994 39.0544,21.3456567 39.216,21.3201188 C39.2472,21.315176 39.2792,21.3102332 39.3104,21.3044666 C39.468,21.2781049 39.6256,21.2500955 39.7848,21.2179672 C39.816,21.2122006 39.8464,21.2056102 39.8776,21.1990198 C40.044,21.1652438 40.2096,21.1289965 40.376,21.0894539 C40.3912,21.0861587 40.4072,21.0820397 40.4224,21.0779207 C41.9328,20.7187425 43.4216,20.1692658 44.3512,19.7021694 C44.5752,19.8455112 44.7824,20.0102718 44.9752,20.1890371 C45.0392,20.2483509 45.0928,20.3183742 45.1528,20.381807 C45.256,20.4897252 45.356,20.5992911 45.4472,20.7162711 C45.3552,20.7591089 45.2696,20.8192465 45.1984,20.8958602 C44.3672,21.796277 43.2504,22.2905589 42.0536,22.2905589 Z M1.6,19.3199247 L1.6,16.4918085 C1.6088,17.3246735 1.8608,18.0949294 2.2984,18.6732393 C2.068,18.8569474 1.8544,19.0571315 1.6536,19.2704966 C1.6376,19.2886202 1.6168,19.3018011 1.6,19.3199247 Z M11.3952,19.6272033 C11.3272,19.7021694 11.2008,19.7532452 11.036,19.7870211 C11.0168,19.7911402 11.0008,19.7969068 10.9808,19.800202 C10.9192,19.8109114 10.8456,19.8158542 10.7736,19.8216209 C10.7248,19.8249161 10.68,19.8298589 10.6272,19.8315065 C10.568,19.8331541 10.5024,19.8323303 10.4384,19.8315065 C10.3576,19.8306827 10.2776,19.8298589 10.1896,19.8249161 C10.1384,19.8224447 10.0848,19.8183257 10.0312,19.8142066 C9.9208,19.8059686 9.808,19.796083 9.6888,19.7829021 C9.644,19.7779593 9.5976,19.7721927 9.552,19.7664261 C9.424,19.7507738 9.292,19.7318263 9.1568,19.7104074 C9.1032,19.7021694 9.0496,19.6931076 8.9952,19.6840457 C8.8784,19.6642745 8.7584,19.6428556 8.6384,19.6197891 C8.5456,19.6016654 8.4536,19.5843656 8.3592,19.5645943 C8.296,19.5514134 8.232,19.5374088 8.1688,19.5234041 C6.6912,19.1988257 5.0552,18.6542918 4.0344,18.0520917 C4.0248,18.0463251 4.0136,18.0438537 4.004,18.0389108 C3.908,17.9771256 3.8152,17.9161642 3.7392,17.8543789 C3.356,17.5454527 3.144,16.8715818 3.2128,16.1771157 C3.2688,15.6070439 3.512,15.1465379 3.8456,14.9760107 C3.9536,14.9208159 4.056,14.8878638 4.204,14.8713877 C4.3048,14.8606782 4.408,14.8557354 4.5152,14.8557354 C6.7616,14.8557354 10.2992,17.1220179 11.276,19.2622585 C11.3816,19.4937472 11.3888,19.607432 11.3952,19.6272033 L11.3952,19.6272033 Z M36.724,19.2630823 C37.7,17.1253131 41.2312,14.8615021 43.5248,14.8615021 C43.636,14.8615021 43.744,14.8672687 43.8496,14.8779781 C43.944,14.8886876 44.0464,14.9216397 44.1544,14.9768345 C44.488,15.1473617 44.7312,15.6078677 44.7872,16.1779395 C44.856,16.8724056 44.644,17.5462765 44.2608,17.8552027 C44.1848,17.916988 44.0912,17.9779494 43.996,18.0397346 C43.9864,18.0446775 43.9752,18.0471489 43.9656,18.0529155 C42.6616,18.8215238 40.3488,19.49869 38.6544,19.7474786 C38.6488,19.7483024 38.644,19.7491262 38.6384,19.74995 C38.4776,19.7730165 38.3224,19.7927878 38.1744,19.8076162 C38.1616,19.8092638 38.1488,19.8100876 38.1368,19.8109114 C37.9928,19.8249161 37.8552,19.8356255 37.7264,19.8413921 C37.7176,19.8413921 37.7096,19.8422159 37.7016,19.8422159 C37.1584,19.8652824 36.7632,19.8100876 36.62,19.6560364 C36.6184,19.649446 36.6144,19.6436794 36.6128,19.637089 C36.6128,19.5926036 36.6272,19.4756235 36.724,19.2630823 Z M45.7016,18.6724155 C46.1392,18.0941056 46.392,17.3238497 46.4,16.4918085 L46.4,19.3199247 C46.3832,19.3018011 46.3624,19.2877964 46.3456,19.2704966 C46.1456,19.0563077 45.9312,18.8561236 45.7016,18.6724155 Z M3.5496,4.13228971 C3.684,3.99141937 3.8264,3.85384424 3.9776,3.71956433 C7.6408,0.480370308 13.3648,1.1048131 16.7392,5.11343927 C16.924,5.33339472 17.0976,5.54593593 17.2648,5.75106292 C18.7904,7.62768651 19.9952,9.1097084 24.7992,9.1097084 L43.1992,9.1097084 C44.964,9.1097084 46.3992,10.5876113 46.3992,12.404921 L46.3992,16.4753324 C46.4,16.3221051 46.3936,16.1672301 46.3784,16.0115313 C46.2648,14.8656211 45.6992,13.9273093 44.8648,13.5005792 C44.588,13.3597089 44.3048,13.271562 43.956,13.2328432 C41.0456,12.9321551 36.5944,15.6704768 35.2744,18.5628496 C35.2048,18.716077 35.156,18.858595 35.1152,18.9953463 L12.8832,18.9953463 C12.8432,18.8577712 12.7944,18.7152532 12.724,18.5628496 C11.4048,15.6713006 6.9512,12.9346265 3.976,13.2402574 C3.6936,13.2723858 3.4104,13.3597089 3.1336,13.5005792 C2.2992,13.9273093 1.7336,14.8656211 1.62,16.0115313 C1.6056,16.1672301 1.5992,16.3221051 1.6,16.4753324 L1.6,9.35355413 C1.6,7.33194118 2.3112,5.42895588 3.5496,4.13228971 Z M6.0688,31.3523937 L5.776,31.3523937 L6.256,28.8809842 L8.4696,28.8809842 L6.0688,31.3523937 Z M41.9312,31.3523937 L39.5312,28.8809842 L41.7448,28.8809842 L42.2248,31.3523937 L41.9312,31.3523937 Z M42.0536,27.2333779 L37.6,27.2333779 L10.4,27.2333779 L5.9464,27.2333779 C3.5496,27.2333779 1.6,25.2257696 1.6,22.7576553 C1.6,22.679394 1.6224,22.6003089 1.6664,22.5236952 C1.6672,22.5228714 1.6672,22.5212238 1.668,22.5204 C1.7264,22.419896 1.8152,22.3465776 1.9168,22.3119778 C1.9856,22.3778821 2.0592,22.4355483 2.1304,22.4973335 C3.2,23.4274073 4.5296,23.9381653 5.9464,23.9381653 L42.0544,23.9381653 C43.4704,23.9381653 44.8008,23.4274073 45.8696,22.4981573 C45.9408,22.4363721 46.0144,22.3787059 46.0832,22.3128016 C46.1848,22.3474014 46.2736,22.419896 46.332,22.5212238 C46.3328,22.5220476 46.3328,22.5236952 46.3336,22.524519 C46.3776,22.6003089 46.4,22.679394 46.4,22.7576553 C46.4,25.2257696 44.4504,27.2333779 42.0536,27.2333779 Z" id="Shape"></path>
                </g>
            </g>
        </g>
    </g>
</svg>