<?xml version="1.0" encoding="UTF-8"?>
<svg width="46px" height="42px" viewBox="0 0 46 42" version="1.1" xmlns="http://www.w3.org/2000/svg" xmlns:xlink="http://www.w3.org/1999/xlink">
    <!-- Generator: sketchtool 53.1 (72631) - https://sketchapp.com -->
    <title>1AA3C911-2530-48AD-9BAD-913121709753</title>
    <desc>Created with sketchtool.</desc>
    <g id="Mobile" stroke="none" stroke-width="1" fill="none" fill-rule="evenodd">
        <g id="General-Information---scrolling-page--Copy" transform="translate(-21.000000, -115.000000)">
            <g id="phone-book" transform="translate(21.000000, 115.000000)">
                <path d="M24.5088983,40.4915456 C46.2375694,33.547215 54.6144113,-3.58235266 34.8014267,8.34292982 C14.9884421,20.2682123 -3.25711369,35.8515697 0.492998602,39.5423479 C4.20372369,43.194362 19.3915461,42.1270154 24.5088983,40.4915456 Z" id="Oval" fill="#E6E6E6" transform="translate(23.000000, 24.000000) scale(-1, 1) translate(-23.000000, -24.000000) "></path>
                <path d="M34.8587077,27.9321898 C34.7213046,27.5284667 34.5391196,27.1420735 34.3155698,26.7805291 L34.2939882,26.7475197 L34.1177381,26.4394321 C33.9918452,26.2230373 33.8659524,26.0066424 33.7184778,25.771909 C33.4990645,25.4271444 33.2976359,25.1300599 33.0602379,24.7816275 L33.0602379,24.7596213 L33.0386562,24.7302796 L32.9990899,24.6752639 C31.9991406,23.2081802 31.2977374,22.1738862 29.1863338,22.8010645 C28.8601813,22.904769 28.5492258,23.052761 28.2619203,23.2411896 C27.7655426,23.5419418 27.4346241,23.7399981 25.9778636,21.9318174 C25.830389,21.7520996 25.6181696,21.4586829 25.4311287,21.1615984 C25.2904884,20.9512553 25.1631567,20.7319263 25.0498531,20.5050784 L25.0066898,20.409718 C24.9738678,20.3287533 24.9353805,20.250356 24.8915878,20.1749846 L24.4959244,19.2140448 C24.2375742,18.4456597 24.0945059,17.6419728 24.0714855,16.8300337 C24.0200493,16.3499305 24.1088937,15.8650594 24.3268682,15.4363041 C24.3649958,15.3873402 24.4098676,15.3440613 24.459955,15.3079343 C24.534052,15.254019 24.6136342,15.2085394 24.697353,15.1722291 C24.8391624,15.1186805 24.9846586,15.0757683 25.1325827,15.0438592 C26.1505167,14.794455 27.5425323,14.4496903 27.2224047,12.0656793 C27.1002886,11.1552621 26.8980507,10.257957 26.6181188,9.38458375 L26.6181188,9.3625775 L26.5425831,9.10583784 C26.4047304,8.6382049 26.2377424,8.18001632 26.0426085,7.73411455 L26.013833,7.66809579 C25.772838,7.10326855 25.5426338,6.56778299 24.7081438,6.23035373 C22.5697632,5.50433067 20.2393959,6.54513488 19.3127343,8.64003876 C19.1346857,9.12821087 19.0327125,9.64178187 19.0105913,10.1621381 C18.9892795,10.6000626 19.0001602,11.038904 19.0429638,11.4751781 C19.3067094,14.6453626 19.9990304,17.7630989 21.1004133,20.7398118 C22.0795902,23.399818 23.5088342,25.8639685 25.3232205,28.0202149 C25.3771746,28.0825659 25.4203379,28.1412493 25.4670981,28.1999326 C25.5138583,28.258616 25.5965879,28.3649795 25.6865114,28.4676754 L26.0030421,28.8344463 L26.0929656,28.9371422 L26.1217411,28.9701516 L27.7907212,30.7379875 L28.0928641,31.0497428 C28.7475071,31.7392721 29.0028899,32.0106826 30.3229667,31.9996795 C31.305291,31.9674036 32.2689111,31.7170825 33.1465644,31.2661376 C33.9024613,30.9190806 34.5103441,30.3057479 34.8587077,29.5386465 C35.0470974,29.0203992 35.0470974,28.4504372 34.8587077,27.9321898 Z M33.9127126,29.1645402 C33.6522042,29.6917734 33.2179637,30.1085169 32.6861561,30.3418749 C31.9530998,30.7207492 31.1479249,30.9322844 30.3265637,30.9617177 C29.4489104,30.9617177 29.2798542,30.7893354 28.8446245,30.3308717 L28.5280938,30.0007779 L26.8627107,28.2366097 L26.7619964,28.1265784 L26.4418688,27.7598075 C26.3843177,27.6937887 26.3267667,27.6204345 26.2728126,27.5507481 C26.2188585,27.4810616 26.1613075,27.4040397 26.0929656,27.3233501 C24.3444033,25.2620057 22.9649769,22.9032102 22.0176329,20.3547024 C20.9532085,17.4779345 20.2826491,14.4652781 20.0249283,11.4018239 C19.9868008,11.0155224 19.977179,10.6269286 19.9961528,10.23916 C20.0125189,9.8293852 20.0914717,9.42483686 20.2299539,9.03981908 C20.9523093,7.47902537 22.6961057,6.70449685 24.3088835,7.22797067 C24.6697465,7.39365944 24.9407759,7.71293353 25.0498531,8.10088549 L25.0786286,8.16690426 C25.2593748,8.56741811 25.415572,8.97902679 25.5462308,9.39925459 L25.6217665,9.65966195 L25.6217665,9.68533592 C25.8856021,10.5061693 26.0770492,11.3494673 26.1936799,12.2050522 C26.3879147,13.6537974 25.5174553,13.8665246 24.8807969,14.0389069 C24.6746024,14.0823692 24.4724544,14.1438034 24.2765111,14.2222924 C24.1228318,14.2902367 23.976886,14.3751441 23.8412814,14.4753643 C23.7054969,14.570358 23.5843699,14.6853407 23.4815874,14.8164613 C23.1132608,15.4334617 22.9481612,16.1545333 23.0103883,16.8740462 C23.0469872,17.7999594 23.2204496,18.7149612 23.5247507,19.5881511 L23.5247507,19.6101574 L23.9348018,20.6077743 C23.9455027,20.6370243 23.9587214,20.6652656 23.9743681,20.6921316 C24.0006258,20.7366943 24.0234664,20.7833659 24.04271,20.8315046 L24.100261,20.9672098 C24.2344269,21.2386203 24.385858,21.5007698 24.5534754,21.7520996 C24.7620979,22.0711903 24.9923021,22.3939487 25.1649552,22.6066759 C27.1828384,25.1117214 27.8123028,24.7302796 28.7618949,24.1544492 C28.9759128,24.0126006 29.2067464,23.8992683 29.4489104,23.81702 C30.8517169,23.3989011 31.3768701,24.1837909 32.1286305,25.2841037 L32.1681968,25.342787 L32.1861815,25.3721287 L32.1861815,25.394135 C32.4091918,25.7205611 32.5962326,25.9956393 32.8228398,26.3514071 C32.9595235,26.5641343 33.0818195,26.7768614 33.2005185,26.9859208 L33.3803655,27.2903407 L33.4019471,27.3270178 C33.6005881,27.6225435 33.7658675,27.9399837 33.8947279,28.2732868 C34.0012872,28.5595515 34.0064128,28.8747911 33.9091156,29.1645402 L33.9127126,29.1645402 L33.9127126,29.1645402 Z" id="Shape" fill="#F9A61E" fill-rule="nonzero"></path>
                <path d="M41.2953764,0.730769604 C40.8364891,0.26262057 40.2130781,-0.000365004379 39.5629802,3.80232344e-07 L13.5339073,3.80232344e-07 C12.1817757,0.00401961096 11.0866282,1.11734652 11.0826746,2.49192343 L11.0826746,5.78038494 L10.2775776,5.78038494 C9.06966256,5.73060128 8.05080155,6.68562531 8.0018308,7.91359165 C7.95286006,9.14155798 8.89228963,10.177332 10.1002047,10.2271157 C10.159329,10.229582 10.2184533,10.229582 10.2775776,10.2271157 L11.0934571,10.2271157 L11.0934571,16.7748079 L10.2775776,16.7748079 C9.06966256,16.7250243 8.05080155,17.6801396 8.0018308,18.9080146 C7.95286006,20.1359809 8.89237948,21.171755 10.1002047,21.2215386 C10.159329,21.224005 10.2184533,21.224005 10.2775776,21.2215386 L11.0934571,21.2215386 L11.0934571,27.7692309 L10.2775776,27.7692309 C9.06966256,27.7194472 8.05080155,28.6744712 8.0018308,29.9024376 C7.95286006,31.1304039 8.89228963,32.1661779 10.1002047,32.2159616 C10.159329,32.2184279 10.2184533,32.2184279 10.2775776,32.2159616 L11.0934571,32.2159616 L11.0934571,35.5044231 C11.0954339,36.8761683 12.1845612,37.9899519 13.5339073,38 L39.5486035,38 C40.9007351,37.9959808 41.9958827,36.8826539 41.9998363,35.5080769 L41.9998363,2.50653882 C42.007384,1.84281767 41.7537246,1.20348595 41.2953764,0.730769604 Z M10.1158394,9.13461567 C9.50249204,9.08437529 9.04531197,8.53821664 9.09464213,7.9146878 C9.13849116,7.36085608 9.57105108,6.9211157 10.1158394,6.87653877 L13.0882287,6.87653877 C13.701576,6.92677916 14.158756,7.47293781 14.1094259,8.09646665 C14.065487,8.65029837 13.6330169,9.09003875 13.0882287,9.13461567 L10.1158394,9.13461567 Z M10.1158394,20.1180771 C9.50249204,20.0678367 9.04531197,19.5216781 9.09464213,18.8981492 C9.13849116,18.3443175 9.57105108,17.9045771 10.1158394,17.8600002 L13.0882287,17.8600002 C13.701576,17.9102406 14.158756,18.4563992 14.1094259,19.0799281 C14.0655768,19.6337598 13.6330169,20.0735002 13.0882287,20.1180771 L10.1158394,20.1180771 Z M10.1158394,31.1015385 C9.50249204,31.0512981 9.04531197,30.5051395 9.09464213,29.8816107 C9.13849116,29.3277789 9.57105108,28.8880386 10.1158394,28.8434616 L13.0882287,28.8434616 C13.701576,28.893702 14.158756,29.4398607 14.1094259,30.0633895 C14.0655768,30.6172212 13.6330169,31.0569616 13.0882287,31.1015385 L10.1158394,31.1015385 Z M40.9826825,35.4861539 C40.9826825,36.2933798 40.3390542,36.9476923 39.5450093,36.9476923 L13.5339073,36.9476923 C12.7398625,36.9476923 12.0962342,36.2933798 12.0962342,35.4861539 L12.0962342,32.1976924 L12.9013311,32.1976924 C14.1092462,32.247476 15.1281072,31.292452 15.1770779,30.0644857 C15.2260487,28.8365193 14.2866191,27.8007453 13.0787041,27.7509616 C13.0195798,27.7484953 12.9604554,27.7484953 12.9013311,27.7509616 L12.1249876,27.7509616 L12.1249876,21.2251925 L12.9300846,21.2251925 C14.1379996,21.2749761 15.1568606,20.3199521 15.2058314,19.0919858 C15.2548021,17.8640194 14.3153726,16.8282454 13.1074575,16.7784618 C13.0483332,16.7759954 12.9892089,16.7759954 12.9300846,16.7784618 L12.1249876,16.7784618 L12.1249876,10.2307695 L12.9300846,10.2307695 C14.1379996,10.2805532 15.1568606,9.32552913 15.2058314,8.0975628 C15.2548021,6.86959647 14.3153726,5.83382244 13.1074575,5.78403878 C13.0483332,5.78157244 12.9892089,5.78157244 12.9300846,5.78403878 L12.1249876,5.78403878 L12.1249876,2.49557728 C12.1249876,1.68835132 12.7686159,1.03403883 13.5626608,1.03403883 L39.577357,1.03403883 C40.3714018,1.03403883 41.0150301,1.68835132 41.0150301,2.49557728 L40.9826825,35.4861539 Z" id="Shape" fill="#F9A61E" fill-rule="nonzero"></path>
            </g>
        </g>
    </g>
</svg>