<?xml version="1.0" encoding="UTF-8"?>
<svg width="49px" height="44px" viewBox="0 0 49 44" version="1.1" xmlns="http://www.w3.org/2000/svg" xmlns:xlink="http://www.w3.org/1999/xlink">
    <!-- Generator: sketchtool 53.1 (72631) - https://sketchapp.com -->
    <title>4F61EBDE-BBBD-44A8-B00C-F806D835DB66</title>
    <desc>Created with sketchtool.</desc>
    <g id="Mobile" stroke="none" stroke-width="1" fill="none" fill-rule="evenodd">
        <g id="General-Information---scrolling-page-" transform="translate(-28.000000, -112.000000)">
            <g id="Group-3" transform="translate(28.000000, 112.000000)">
                <path d="M26.1073047,42.4077426 C49.2530631,35.0776159 58.1762207,-4.11470559 37.071085,8.47309259 C15.9659492,21.0608908 -3.46953415,37.5099902 0.525150685,41.4058116 C4.47787958,45.2607155 20.6562121,44.1340718 26.1073047,42.4077426 Z" id="Oval" fill="#E6E6E6"></path>
                <g id="curriculum" transform="translate(3.000000, 0.000000)" fill="#F9A61E" fill-rule="nonzero">
                    <path d="M39.9990433,9.03810735 C39.9988088,9.03091986 39.998418,9.02396675 39.9980272,9.01693551 C39.9961515,8.98998244 39.9932596,8.96326374 39.9880231,8.93701379 C39.9880231,8.93677942 39.9880231,8.9363888 39.987945,8.93615442 C39.9826303,8.90951385 39.9750491,8.88342015 39.9662955,8.85763895 C39.9641071,8.85107646 39.9616843,8.8445921 39.9591833,8.83802961 C39.9501952,8.81381091 39.9399567,8.79006096 39.9279205,8.76709225 C39.9272171,8.765686 39.92667,8.76420163 39.9259666,8.76279539 C39.9131489,8.73881106 39.8982991,8.71584235 39.8823551,8.6936549 C39.8782127,8.68795178 39.8740704,8.68232679 39.8699281,8.6767018 C39.8530462,8.65451435 39.8350701,8.63303001 39.8152183,8.61310818 L34.9419813,3.74178957 L31.3835773,0.184843389 C31.3637255,0.164999678 31.3421542,0.147109088 31.3200358,0.130155996 C31.3144085,0.125781004 31.3087031,0.121562263 31.3028413,0.117421646 C31.2806447,0.101562302 31.2579792,0.0868748303 31.2340632,0.0741404802 C31.2321093,0.0729686075 31.2299209,0.0722654839 31.2278889,0.071171736 C31.2057705,0.0596092586 31.1828705,0.0497655278 31.1594234,0.0410936697 C31.1521548,0.0384374249 31.1451207,0.0357811801 31.137774,0.0333593098 C31.1133109,0.0249999512 31.0883788,0.0178905901 31.0628215,0.0126562253 C31.0602424,0.0121874762 31.0575069,0.0117187271 31.0547714,0.011249978 C31.0305428,0.00664061203 31.0059233,0.00382811752 30.9810695,0.00218749573 C30.9727848,0.0014843721 30.9647347,0.00117187271 30.9564501,0.000937498169 C30.9501193,0.000781248474 30.9437105,0 30.9371453,0 L9.40195848,0 C9.05314438,0 8.77052915,0.282499448 8.77052915,0.631170642 L8.77052915,15.3541888 C5.75453381,15.4769229 3.33839242,17.9666837 3.33839242,21.0110527 L3.33839242,22.6828463 C2.77949266,23.089408 2.41520351,23.7477661 2.41520351,24.4899522 C2.41520351,25.7217466 3.41795611,26.7239322 4.65041175,26.7239322 C4.65603904,26.7239322 4.66151002,26.7231509 4.66713732,26.7230728 C4.9867989,27.8522112 5.75445565,28.7951781 6.76650892,29.3451771 L6.76650892,30.1481442 L2.99833189,31.6232976 C1.95181144,31.9823594 0,33.3962629 0,36.2264136 L0,39.3680481 C0,39.7166412 0.282615231,40 0.631429329,40 L3.42475576,40 C3.77356985,40 4.05618509,39.7175006 4.05618509,39.3688294 C4.05618509,39.0201582 3.77356985,38.7376587 3.42475576,38.7376587 L1.26301497,38.7376587 L1.26301497,36.2264136 C1.26301497,33.5981375 3.33198356,32.8441546 3.41647113,32.8145453 C3.42631889,32.811264 3.43601035,32.8077484 3.4457018,32.8039203 L6.90648787,31.4490011 C6.92235371,31.4685323 6.93900113,31.4875166 6.95736799,31.5055635 L8.77248307,33.2728256 C8.89042178,33.3876692 9.04853312,33.4518878 9.21305333,33.4518878 C9.21633592,33.4518878 9.21969666,33.4518878 9.22305741,33.4518097 C9.39109467,33.4492315 9.55108178,33.3797004 9.66769182,33.258685 L11.4427906,31.4172043 L14.8973241,32.8019672 C14.9085005,32.8064984 14.9199114,32.810639 14.9312442,32.814389 C14.9528155,32.8216546 17.0848567,33.5685282 17.0848567,36.2262574 L17.0848567,38.7375025 L11.8850803,38.7375025 L6.60284844,38.7375025 L5.64136266,38.7375025 C5.29262672,38.7375025 5.00993333,39.0200019 5.00993333,39.3686731 C5.00993333,39.7173443 5.29254857,39.9998438 5.64136266,39.9998438 L6.60284844,39.9998438 L11.8851585,39.9998438 L17.7162078,39.9998438 C17.7768576,39.9998438 17.8352407,39.9907031 17.8907321,39.9743751 L39.3685518,39.9743751 C39.7172877,39.9743751 39.9999811,39.6917975 39.9999811,39.3432044 L39.9999811,9.05935731 C40.0001375,9.05224794 39.9992777,9.04513858 39.9990433,9.03810735 Z M31.5685746,2.15499579 L33.5436768,4.12936693 C33.5439894,4.12967943 33.5443802,4.12999193 33.5446929,4.13030443 L34.0490391,4.63436595 L36.2214092,6.80584608 C36.2216437,6.80608046 36.2218782,6.80647108 36.2221908,6.80670546 L37.8444147,8.42826479 L31.5686528,8.42826479 L31.5686528,2.15499579 L31.5685746,2.15499579 Z M4.50347684,25.4492472 C4.03703665,25.3781536 3.67806216,24.9757325 3.67806216,24.4899522 C3.67806216,24.2079215 3.79951793,23.9544845 3.99217461,23.7767504 C4.1844405,23.7700317 4.35466616,23.6776881 4.46588338,23.536204 C4.47831032,23.5339384 4.49097174,23.5323759 4.50339868,23.530579 L4.50339868,25.4492472 L4.50347684,25.4492472 Z M5.13740718,21.7787075 C5.13732903,21.7787075 5.13725087,21.7787075 5.13717271,21.7787075 C5.13631299,21.7787075 5.13553142,21.7787075 5.13482801,21.7787075 C5.1131004,21.7787075 5.0915291,21.7798793 5.07042675,21.7819887 C5.0636271,21.7826918 5.05698377,21.7840981 5.05018412,21.7850356 C5.03595957,21.7869106 5.02173502,21.7886293 5.0078231,21.7915199 C4.99828796,21.7934731 4.98914361,21.7962856 4.97976478,21.7987074 C4.96890098,21.8013637 4.95795902,21.8037855 4.94740784,21.8070668 C4.93630957,21.8105043 4.92568023,21.8148793 4.91481643,21.8189418 C4.90637549,21.8220668 4.89777823,21.8246449 4.8894936,21.8281605 C4.87675403,21.8335511 4.8644834,21.8399573 4.85229093,21.8460511 C4.84642917,21.8489417 4.84025478,21.8514417 4.83454932,21.8545667 C4.82165344,21.8616761 4.80930466,21.8695667 4.79703403,21.8773791 C4.79226646,21.880426 4.78734258,21.882926 4.78265316,21.886051 C4.77061701,21.894176 4.75928426,21.9030822 4.74787336,21.9119885 C4.74334026,21.9155041 4.73849453,21.9186291 4.73403959,21.9223791 C4.72317579,21.9312072 4.7130154,21.9410509 4.70269869,21.9506603 C4.6983219,21.954879 4.69363249,21.958629 4.68925571,21.9629259 C4.67956426,21.9726133 4.67049806,21.9830821 4.66151002,21.9933945 C4.65721139,21.9981602 4.65267829,22.0026133 4.64853598,22.0076133 C4.64001688,22.0177695 4.63243567,22.028707 4.62454182,22.0394882 C4.62047767,22.0450351 4.61602272,22.0503476 4.61219304,22.0559725 C4.60828519,22.0616757 4.60492445,22.0679256 4.60125108,22.073785 L4.60125108,21.0112871 C4.60125108,18.5846512 6.57611879,16.6106707 9.00351477,16.6106707 L9.42298267,16.6106707 C11.8503005,16.6106707 13.8250901,18.5846512 13.8250901,21.0110527 L13.8250901,22.0449569 C13.8236832,22.0429257 13.8221201,22.0409726 13.8206351,22.0389413 C13.8151641,22.0314413 13.8096932,22.0238632 13.8039877,22.0165976 C13.7975788,22.008707 13.7909355,22.0010508 13.784214,21.9934727 C13.7773362,21.9855821 13.7704584,21.9778477 13.763268,21.9704258 C13.756781,21.9637852 13.7500595,21.9574571 13.743338,21.951129 C13.7352097,21.9433946 13.7270813,21.9358165 13.7184841,21.928629 C13.7116844,21.9228478 13.7045722,21.9174572 13.6976162,21.9119885 C13.6887063,21.9050353 13.6797183,21.8980822 13.6702613,21.8915197 C13.6626019,21.8862073 13.6546299,21.8813635 13.6467361,21.8762854 C13.6376699,21.8705823 13.6284474,21.8647229 13.6190686,21.8594886 C13.6097679,21.8543323 13.6001546,21.8496448 13.5905413,21.8448792 C13.5820222,21.8405823 13.5736594,21.8362855 13.5647495,21.8325355 C13.5533386,21.8274574 13.5416151,21.8230824 13.5297353,21.8187074 C13.5222322,21.8158949 13.5148073,21.8130043 13.5071479,21.8104262 C13.4940176,21.8060512 13.4806527,21.8026137 13.4670534,21.7991762 C13.4615043,21.7976918 13.4561115,21.7958168 13.4504842,21.7944887 C12.0745325,21.4816768 11.6437319,19.7035553 11.6399804,19.6876959 C11.5852706,19.4458214 11.3937862,19.258478 11.1506402,19.2087906 C10.9075724,19.1588688 10.6578612,19.2562905 10.5124894,19.4572276 C8.84892049,21.7557388 5.18805283,21.7787075 5.13740718,21.7787075 Z M10.4160438,30.5886121 C10.4160438,30.5894715 10.4160438,30.5903309 10.4160438,30.591034 L10.4160438,30.662987 L9.19875062,31.9257189 L8.02936758,30.7870492 L8.02936758,29.7921293 C8.2868163,29.840098 8.55168992,29.866426 8.82281609,29.866426 L9.62282978,29.866426 C9.89395595,29.866426 10.1588296,29.840098 10.4162001,29.7921293 L10.4162001,30.5886121 L10.4160438,30.5886121 Z M9.62275163,28.6041629 L8.82273794,28.6041629 C7.13736325,28.6041629 5.76633549,27.2336968 5.76633549,25.5491688 L5.76633549,23.0093301 C6.86912889,22.9146427 9.16725341,22.5355029 10.8053432,21.0189433 C11.1402454,21.6802702 11.7227485,22.4776905 12.6789196,22.8688616 L12.6789196,25.5491688 C12.6789978,27.2337749 11.3080482,28.6041629 9.62275163,28.6041629 Z M38.737357,38.7121119 L18.3477153,38.7121119 L18.3477153,36.2263355 C18.3477153,33.3983723 16.398952,31.9844688 15.3518063,31.6240789 L11.6789806,30.151738 L11.6789806,29.3450989 C12.6907994,28.7952563 13.458378,27.8525237 13.7781178,26.7236197 C15.0053369,26.7174478 16.0019151,25.7179185 16.0019151,24.4899522 C16.0019151,23.7518286 15.6417683,23.0964393 15.0880269,22.6893307 L15.0880269,21.0110527 C15.0880269,18.0948865 12.8710292,15.6870787 10.033466,15.3816106 L10.033466,1.26234128 L30.3057941,1.26234128 L30.3057941,9.05935731 C30.3057941,9.4080285 30.5884094,9.69052795 30.9372235,9.69052795 L38.737357,9.69052795 L38.737357,38.7121119 L38.737357,38.7121119 Z M13.9417001,25.4449503 L13.9417001,23.5347978 L13.9417783,23.5347978 C13.954127,23.5370634 13.966554,23.5394853 13.9786683,23.5422196 C14.0840238,23.6640944 14.2348665,23.7450317 14.405014,23.7587817 C14.6091597,23.9371407 14.7389001,24.1983902 14.7389001,24.4900303 C14.7389001,24.9658106 14.3943847,25.362138 13.9417001,25.4449503 Z" id="Shape"></path>
                    <path d="M16.6186452,12 L26.3813548,12 C26.7231067,12 27,11.7762099 27,11.5 C27,11.2237901 26.7231067,11 26.3813548,11 L16.6186452,11 C16.2768933,11 16,11.2237901 16,11.5 C16,11.7760861 16.2768933,12 16.6186452,12 Z" id="Path"></path>
                    <path d="M17,15.5 C17,15.7762099 17.2771452,16 17.619208,16 L32.380792,16 C32.7228548,16 33,15.7762099 33,15.5 C33,15.2237901 32.7227782,15 32.380792,15 L17.619208,15 C17.2771452,15 17,15.2237901 17,15.5 Z" id="Path"></path>
                    <path d="M32.380792,20 L17.619208,20 C17.2771452,20 17,20.2237901 17,20.5 C17,20.7762099 17.2771452,21 17.619208,21 L32.380792,21 C32.7228548,21 33,20.7762099 33,20.5 C33.0000766,20.223852 32.7227781,20 32.380792,20 Z" id="Path"></path>
                    <path d="M32.380792,24 L17.619208,24 C17.2771452,24 17,24.2237901 17,24.5 C17,24.7762099 17.2771452,25 17.619208,25 L32.380792,25 C32.7228548,25 33,24.7762099 33,24.5 C33.0000766,24.223852 32.7227781,24 32.380792,24 Z" id="Path"></path>
                    <path d="M32.380792,28 L17.619208,28 C17.2771452,28 17,28.2237901 17,28.5 C17,28.7762099 17.2771452,29 17.619208,29 L32.380792,29 C32.7228548,29 33,28.7762099 33,28.5 C33.0000766,28.223852 32.7227781,28 32.380792,28 Z" id="Path"></path>
                </g>
            </g>
        </g>
    </g>
</svg>