<?xml version="1.0" encoding="UTF-8"?>
<svg width="88px" height="76px" viewBox="0 0 88 76" version="1.1" xmlns="http://www.w3.org/2000/svg" xmlns:xlink="http://www.w3.org/1999/xlink">
    <!-- Generator: sketchtool 53.1 (72631) - https://sketchapp.com -->
    <title>F39CB8C9-7AD1-4598-A971-D0B39D03AD4B</title>
    <desc>Created with sketchtool.</desc>
    <g id="Mobile" stroke="none" stroke-width="1" fill="none" fill-rule="evenodd">
        <g id="7" transform="translate(-28.000000, -226.000000)">
            <g id="Group-2" transform="translate(28.504514, 226.095441)">
                <path d="M39.4929421,62.1623814 C23.2609584,66.4078218 -3.86696057,62.7688729 0.461568424,65.9529532 C4.79009742,69.1370335 14.454675,77.1730457 35.0898004,74.443834 C45.3506425,73.0867301 56.5871868,72.1513897 68.7994335,71.6378128 C72.9601927,71.4628352 93.5995546,63.2237415 84.8678839,63.830233 C80.9147494,64.104813 76.8016679,61.8903389 69.6499171,60.8781493 C59.5848475,59.4536366 48.9822696,59.6804683 39.4929421,62.1623814 Z" id="Path-2" fill="#ADE9E8"></path>
                <g id="high-five" transform="translate(6.000000, 0.000000)" fill-rule="nonzero">
                    <circle id="Oval" fill="#F9A61E" cx="14.9954858" cy="27.4045589" r="1"></circle>
                    <circle id="Oval" fill="#F9A61E" cx="14.9954858" cy="32.4045589" r="1"></circle>
                    <path d="M17.4734858,7.57135892 C18.1084191,6.86309225 18.4954858,5.92829225 18.4954858,4.90455892 C18.4954858,2.69895892 16.7010858,0.904558919 14.4954858,0.904558919 C12.2898858,0.904558919 10.4954858,2.69895892 10.4954858,4.90455892 C10.4954858,5.92829225 10.8825524,6.86309225 11.5174858,7.57135892 C9.14295244,8.69242559 7.49548578,11.1092256 7.49548578,13.9045589 C7.49548578,17.7644256 10.6356191,20.9045589 14.4954858,20.9045589 C18.3553524,20.9045589 21.4954858,17.7644256 21.4954858,13.9045589 C21.4954858,11.1092256 19.8480191,8.69242559 17.4734858,7.57135892 Z M14.4954858,2.90455892 C15.5982858,2.90455892 16.4954858,3.80175892 16.4954858,4.90455892 C16.4954858,6.00735892 15.5982858,6.90455892 14.4954858,6.90455892 C13.3926858,6.90455892 12.4954858,6.00735892 12.4954858,4.90455892 C12.4954858,3.80175892 13.3926858,2.90455892 14.4954858,2.90455892 Z M14.4954858,18.9045589 C11.7384191,18.9045589 9.49548578,16.6616256 9.49548578,13.9045589 C9.49548578,11.1474923 11.7384191,8.90455892 14.4954858,8.90455892 C17.2525524,8.90455892 19.4954858,11.1474923 19.4954858,13.9045589 C19.4954858,16.6616256 17.2525524,18.9045589 14.4954858,18.9045589 Z" id="Shape" stroke="#F9A61E" stroke-width="0.5" fill="#F9A61E"></path>
                    <path d="M54.4954858,7.90455892 C53.0561524,7.90455892 51.7170858,8.34162559 50.6033524,9.08949225 C50.4810858,9.07749225 50.3989524,9.12069225 50.3916191,9.23882559 C48.6385524,10.5122923 47.4954858,12.5768256 47.4954858,14.9045589 C47.4954858,18.7644256 50.6356191,21.9045589 54.4954858,21.9045589 C58.3553524,21.9045589 61.4954858,18.7644256 61.4954858,14.9045589 C61.4954858,11.0446923 58.3553524,7.90455892 54.4954858,7.90455892 Z M54.4954858,9.90455892 C56.1277524,9.90455892 57.5796191,10.6909589 58.4928191,11.9045589 L54.4954858,11.9045589 C53.4802858,11.9045589 52.5510858,11.3900256 52.0030858,10.5728256 C52.7373524,10.1486923 53.5881524,9.90455892 54.4954858,9.90455892 Z M54.4954858,19.9045589 C51.7384191,19.9045589 49.4954858,17.6616256 49.4954858,14.9045589 C49.4954858,13.7805589 49.8685524,12.7420256 50.4970858,11.9060256 C51.4250858,13.1396256 52.8970858,13.9045589 54.4954858,13.9045589 L59.3948191,13.9045589 C59.4606858,14.2277589 59.4954858,14.5621589 59.4954858,14.9045589 C59.4954858,17.6616256 57.2525524,19.9045589 54.4954858,19.9045589 Z" id="Shape" stroke="#F9A61E" stroke-width="0.5" fill="#F9A61E"></path>
                    <path d="M61.4265388,26.0425343 C60.9902286,24.4679615 59.503249,23.3049934 57.7403837,23.3049934 L50.8016082,23.3049934 C49.0717715,23.3049934 47.6079674,24.4248538 47.1414041,25.9544388 C41.2406694,25.5155728 36.5771184,20.7323631 36.5771184,14.9117483 C36.5771184,14.3555112 36.1111103,13.9045589 35.5363021,13.9045589 C34.9614939,13.9045589 34.4954858,14.3555112 34.4954858,14.9117483 C34.4954858,21.7927321 40.008898,27.4508537 46.9852817,27.9668032 L46.9852817,40.4272135 C46.9852817,42.3434249 47.7804654,44.0826396 49.0669143,45.3546527 L49.0669143,66.8281996 L45.6152899,67.9416139 C45.0699021,68.1175363 44.7752817,68.6878741 44.9569388,69.2156414 C45.1023756,69.6377209 45.5084327,69.9045589 45.9441878,69.9045589 C46.0532654,69.9045589 46.1642858,69.8877724 46.2735021,69.8525879 L50.4367674,68.5096687 C50.8618368,68.3725567 51.1484082,67.987676 51.1484082,67.5541817 L51.1484082,46.7958736 C52.0954123,47.2324566 53.1539919,47.4775394 54.2708572,47.4775394 C55.3877225,47.4775394 56.4463021,47.2324566 57.3933062,46.7958736 L57.3933062,66.8281996 L53.9416817,67.9416139 C53.3962939,68.1175363 53.1016735,68.6878741 53.2833307,69.2156414 C53.4287674,69.6377209 53.8348246,69.9045589 54.2705797,69.9045589 C54.3796572,69.9045589 54.4906776,69.8877724 54.5998939,69.8525879 L58.7631592,68.5096687 C59.1882286,68.3725567 59.4748001,67.987676 59.4748001,67.5541817 L59.4748001,45.3546527 C60.5454531,44.2960295 61.2740246,42.9136284 61.4887103,41.3749116 C65.4313225,40.90865 68.4954858,37.6513995 68.4954858,33.7126174 C68.4954858,29.7528858 65.3989878,26.4815346 61.4265388,26.0425343 Z M54.2711348,45.4631606 C51.7579103,45.4631606 49.6551837,43.7302576 49.1716899,41.4344029 L59.3704409,41.4344029 C58.886947,43.7302576 56.7843592,45.4631606 54.2711348,45.4631606 Z M59.4750776,39.4200241 L49.0669143,39.4200241 L49.0669143,26.9980213 C49.0669143,26.0723471 49.8450286,25.3193723 50.8016082,25.3193723 L57.7403837,25.3193723 C58.6969633,25.3193723 59.4750776,26.0723471 59.4750776,26.9980213 L59.4750776,39.4200241 Z M61.5567103,39.3292427 L61.5567103,28.0959921 C64.3139021,28.5732655 66.4138531,30.9092735 66.4138531,33.7126174 C66.4138531,36.5159613 64.3139021,38.8519692 61.5567103,39.3292427 Z" id="Shape" stroke="#F9A61E" stroke-width="0.5" fill="#F9A61E"></path>
                    <path d="M20.964763,47.4775394 C21.5395759,47.4775394 22.0055878,47.0265871 22.0055878,46.47035 L22.0055878,27.9668032 C28.9820284,27.4508537 34.4954857,21.7925978 34.4954857,14.9117483 C34.4957632,14.3555112 34.0297512,13.9045589 33.4549384,13.9045589 C32.8801255,13.9045589 32.4141136,14.3555112 32.4141136,14.9117483 C32.4141136,20.7324974 27.7505245,25.5155728 21.8497417,25.9544388 C21.3831746,24.4248538 19.9193586,23.3049934 18.1895077,23.3049934 L11.2506756,23.3049934 C9.48779588,23.3049934 8.00080416,24.4679615 7.56449039,26.0425343 C3.592009,26.4815346 0.495485775,29.7528858 0.495485775,33.7126174 C0.495485775,36.836919 2.4720815,39.6510062 5.39929722,40.8380125 C5.36946024,41.1317089 5.35266827,41.427554 5.35266827,41.7251449 L5.35266827,46.47035 C5.35266827,47.0265871 5.81868023,47.4775394 6.39349308,47.4775394 L9.51596754,47.4775394 L9.51596754,67.5541817 C9.51596754,67.987676 9.80268009,68.3725567 10.2276142,68.5096687 L14.3909134,69.8525879 C14.5001307,69.8877724 14.6110132,69.9045589 14.7202304,69.9045589 C15.1559891,69.9045589 15.5620495,69.6375866 15.7074875,69.2156414 C15.8892849,68.6878741 15.5945233,68.1175363 15.0491311,67.9416139 L11.5974784,66.8281996 L11.5974784,47.4775394 L17.8424273,47.4775394 L17.8424273,67.5541817 C17.8424273,67.987676 18.1291399,68.3725567 18.5540739,68.5096687 L22.7173732,69.8525879 C22.8265904,69.8877724 22.937473,69.9045589 23.0466902,69.9045589 C23.4824489,69.9045589 23.8885093,69.6375866 24.0339472,69.2156414 C24.2157446,68.6878741 23.920983,68.1175363 23.3755908,67.9416139 L19.9239382,66.8281996 L19.9239382,47.4775394 L20.964763,47.4775394 Z M9.51596754,26.9980213 C9.51596754,26.0723471 10.2940882,25.3193723 11.2506756,25.3193723 L18.1895077,25.3193723 C19.1460951,25.3193723 19.9242157,26.0723471 19.9242157,26.9980213 L19.9242157,35.3912664 L9.51596754,35.3912664 L9.51596754,26.9980213 Z M5.84810088,38.822425 C3.88066442,37.8705639 2.57713541,35.8940554 2.57713541,33.7126174 C2.57713541,30.9092735 4.67710357,28.5732655 7.4343179,28.0959921 L7.4343179,36.0303617 C6.73391219,36.8686118 6.200316,37.8151013 5.84810088,38.822425 Z M7.4343179,45.4631606 L7.4343179,41.7251449 C7.4343179,40.1558095 7.97624069,38.638848 8.96627326,37.4056452 L19.9242157,37.4056452 L19.9242157,45.4631606 L7.4343179,45.4631606 Z" id="Shape" stroke="#F9A61E" stroke-width="0.5" fill="#F9A61E"></path>
                    <path d="M27.4954858,13.9045589 L25.4954858,13.9045589 C24.9432191,13.9045589 24.4954858,14.1284256 24.4954858,14.4045589 C24.4954858,14.6806923 24.9432191,14.9045589 25.4954858,14.9045589 L27.4954858,14.9045589 C28.0477524,14.9045589 28.4954858,14.6806923 28.4954858,14.4045589 C28.4954858,14.1284256 28.0477524,13.9045589 27.4954858,13.9045589 Z" id="Path" fill="#F5A623"></path>
                    <path d="M43.4954858,13.9045589 L41.4954858,13.9045589 C40.9432191,13.9045589 40.4954858,14.1284256 40.4954858,14.4045589 C40.4954858,14.6806923 40.9432191,14.9045589 41.4954858,14.9045589 L43.4954858,14.9045589 C44.0477524,14.9045589 44.4954858,14.6806923 44.4954858,14.4045589 C44.4954858,14.1284256 44.0477524,13.9045589 43.4954858,13.9045589 Z" id="Path" fill="#F95A5F"></path>
                    <path d="M40.2381094,9.16193275 C39.894941,8.81876764 39.3385371,8.81876764 38.9954858,9.16193275 L37.7528621,10.4045443 C37.4096937,10.7477094 37.4096937,11.3041078 37.7528621,11.6471558 C37.9243878,11.8187969 38.1492223,11.9045589 38.3741739,11.9045589 C38.5990085,11.9045589 38.8239601,11.8187969 38.9954858,11.6471558 L40.2381094,10.4045443 C40.5812779,10.0613792 40.5812779,9.5049807 40.2381094,9.16193275 Z" id="Path" fill="#F5A623"></path>
                    <path d="M34.9954858,6.90455892 C34.7193524,6.90455892 34.4954858,7.35229225 34.4954858,7.90455892 L34.4954858,9.90455892 C34.4954858,10.4568256 34.7193524,10.9045589 34.9954858,10.9045589 C35.2716191,10.9045589 35.4954858,10.4568256 35.4954858,9.90455892 L35.4954858,7.90455892 C35.4954858,7.35229225 35.2716191,6.90455892 34.9954858,6.90455892 Z" id="Path" fill="#F95A5F"></path>
                    <path d="M31.2381094,10.4045443 L29.9954858,9.16193275 C29.6523173,8.81876764 29.0959134,8.81876764 28.7528621,9.16193275 C28.4096937,9.50509786 28.4096937,10.0614963 28.7528621,10.4045443 L29.9954858,11.6471558 C30.1670114,11.8186798 30.3919631,11.9045589 30.6167976,11.9045589 C30.8416321,11.9045589 31.0665838,11.8187969 31.2381094,11.6471558 C31.5812779,11.3039907 31.5812779,10.7475922 31.2381094,10.4045443 Z" id="Path" fill="#17A444"></path>
                </g>
            </g>
        </g>
    </g>
</svg>