<?xml version="1.0" encoding="UTF-8"?>
<svg width="51px" height="41px" viewBox="0 0 51 41" version="1.1" xmlns="http://www.w3.org/2000/svg" xmlns:xlink="http://www.w3.org/1999/xlink">
    <!-- Generator: sketchtool 53.1 (72631) - https://sketchapp.com -->
    <title>AED4E4B8-BF91-487F-9BBB-5F8337693E39</title>
    <desc>Created with sketchtool.</desc>
    <g id="Mobile-R2" stroke="none" stroke-width="1" fill="none" fill-rule="evenodd">
        <g id="3b" transform="translate(-30.000000, -98.000000)">
            <g id="Group" transform="translate(30.000000, 98.000000)">
                <path d="M24.5999672,26.4666169 C12.1032131,30.2569619 -2.31083904,27.9879504 0.476836922,31.2458295 C3.26451288,34.5037087 9.13475919,43.1326733 20.1458389,39.6017786 C28.7279851,36.8497638 35.6090687,36.6871448 43.4740469,36.1616645 C46.1536752,35.9826313 53.2097706,30.0928219 48.6038724,29.0571723 C42.1217274,27.5996431 34.2211298,23.5484571 24.5999672,26.4666169 Z" id="Path-2" fill="#E6E6E6" transform="translate(25.127085, 32.935168) rotate(-1.000000) translate(-25.127085, -32.935168) "></path>
                <g id="resume" fill="#F9A61E" fill-rule="nonzero">
                    <path d="M35.2096774,1.19354839 L29.7288543,1.19354839 C29.4817525,0.500614327 28.8252425,0 28.0483871,0 L19.6935484,0 C18.916693,0 18.260183,0.500614327 18.0130812,1.19354839 L12.5322581,1.19354839 C11.5453078,1.19354839 10.7419355,1.99692066 10.7419355,2.98387097 L10.7419355,10.7419355 L8.70946476,10.7419355 C7.98302041,10.7419355 7.26619204,10.9322155 6.636199,11.2926694 L3.42183564,13.1290323 L0,13.1290323 L0,23.8709677 L3.99646392,23.8709677 L6.52459522,25.5563886 C7.21315835,26.0159164 8.0147823,26.2580645 8.84175752,26.2580645 L10.7419355,26.2580645 L10.7419355,35.2096774 C10.7419355,36.1966277 11.5453078,37 12.5322581,37 L35.2096774,37 C36.1966277,37 37,36.1966277 37,35.2096774 L37,2.98387097 C37,1.99692066 36.1966277,1.19354839 35.2096774,1.19354839 Z M14.3225806,15.516129 L15.516129,15.516129 C16.8326456,15.516129 17.9032258,14.4455488 17.9032258,13.1290323 C17.9032258,11.8125157 16.8326456,10.7419355 15.516129,10.7419355 L14.3225806,10.7419355 L14.3225806,4.77419355 L18.0130812,4.77419355 C18.260183,5.46712761 18.916693,5.96774194 19.6935484,5.96774194 L28.0483871,5.96774194 C28.8252425,5.96774194 29.4817525,5.46712761 29.7288543,4.77419355 L33.4193548,4.77419355 L33.4193548,33.4193548 L14.3225806,33.4193548 L14.3225806,15.516129 Z M19.0967742,1.79032258 C19.0967742,1.46104779 19.3642736,1.19354839 19.6935484,1.19354839 L28.0483871,1.19354839 C28.3776619,1.19354839 28.6451613,1.46104779 28.6451613,1.79032258 L28.6451613,4.17741935 C28.6451613,4.50669414 28.3776619,4.77419355 28.0483871,4.77419355 L19.6935484,4.77419355 C19.3642736,4.77419355 19.0967742,4.50669414 19.0967742,4.17741935 L19.0967742,1.79032258 Z M11.9354839,2.98387097 C11.9354839,2.65459618 12.2029833,2.38709677 12.5322581,2.38709677 L17.9032258,2.38709677 L17.9032258,3.58064516 L13.1290323,3.58064516 L13.1290323,10.7419355 L11.9354839,10.7419355 L11.9354839,2.98387097 Z M8.84175752,25.0645161 C8.25110257,25.0645161 7.67880544,24.8914283 7.18693296,24.5633191 L4.35837479,22.6774194 L1.19354839,22.6774194 L1.19354839,14.3225806 L3.73945468,14.3225806 L7.22860227,12.3288653 C7.67880544,12.0715647 8.19078407,11.9354839 8.70946476,11.9354839 L15.516129,11.9354839 C16.1743873,11.9354839 16.7096774,12.470774 16.7096774,13.1290323 C16.7096774,13.7872905 16.1743873,14.3225806 15.516129,14.3225806 L8.35483871,14.3225806 L8.35483871,14.9193548 C8.35483871,16.5645634 7.01617632,17.9032258 5.37096774,17.9032258 L5.37096774,19.0967742 C7.47220736,19.0967742 9.21532414,17.5381096 9.50613504,15.516129 L10.7419355,15.516129 L10.7419355,25.0645161 L8.84175752,25.0645161 Z M35.8064516,35.2096774 C35.8064516,35.5389522 35.5389522,35.8064516 35.2096774,35.8064516 L12.5322581,35.8064516 C12.2029833,35.8064516 11.9354839,35.5389522 11.9354839,35.2096774 L11.9354839,15.516129 L13.1290323,15.516129 L13.1290323,34.6129032 L34.6129032,34.6129032 L34.6129032,3.58064516 L29.8387097,3.58064516 L29.8387097,2.38709677 L35.2096774,2.38709677 C35.5389522,2.38709677 35.8064516,2.65459618 35.8064516,2.98387097 L35.8064516,35.2096774 Z" id="Shape"></path>
                    <polygon id="Path" points="20 2 22 2 22 4 20 4"></polygon>
                    <polygon id="Path" points="26 2 28 2 28 4 26 4"></polygon>
                    <path d="M27.8568004,27.4552409 L25.8624822,26.8929851 L25.8619051,26.5970459 C26.9332165,25.8587647 27.6363636,24.634847 27.6363636,23.25 L27.6363636,22.0833333 C27.6363636,19.8323161 25.7802513,18 23.5,18 C21.2197487,18 19.3636364,19.8323161 19.3636364,22.0833333 L19.3636364,23.25 C19.3636364,24.6337076 20.0662065,25.8570556 21.1363636,26.5959066 L21.1363636,26.8935547 L19.1426225,27.4552409 C17.8811701,27.8115641 17,28.9648437 17,30.2605387 L17,32 L30,32 L30,30.2605387 C30,28.9648437 29.1188299,27.8115641 27.8568004,27.4552409 L27.8568004,27.4552409 Z M20.5454545,23.25 L20.5454545,22.0833333 C20.5454545,20.475179 21.8709605,19.1666667 23.5,19.1666667 C25.1290395,19.1666667 26.4545455,20.475179 26.4545455,22.0833333 L26.4545455,23.25 C26.4545455,24.8581543 25.1290395,26.1666667 23.5,26.1666667 C21.8709605,26.1666667 20.5454545,24.8581543 20.5454545,23.25 Z M24.661044,27.1664226 L23.5,28.6942545 L22.338956,27.1664226 C22.7076971,27.273234 23.0969238,27.3333333 23.5,27.3333333 C23.9030762,27.3333333 24.2923029,27.273234 24.661044,27.1664226 Z M28.8181818,30.8333333 L18.1818182,30.8333333 L18.1818182,30.2605387 C18.1818182,29.4835205 18.7106933,28.791097 19.4675071,28.577474 L21.4984686,28.0046793 L23.5,30.6390788 L25.5015314,28.0046793 L27.5324929,28.577474 C28.2893067,28.791097 28.8181818,29.4835205 28.8181818,30.2605387 L28.8181818,30.8333333 Z" id="Shape"></path>
                    <polygon id="Path" points="16 7 18 7 18 8 16 8"></polygon>
                    <polygon id="Path" points="18 7 31 7 31 8 18 8"></polygon>
                    <polygon id="Path" points="19 9 29 9 29 10 19 10"></polygon>
                    <polygon id="Path" points="19 12 30 12 30 13 19 13"></polygon>
                    <polygon id="Path" points="29 14 31 14 31 15 29 15"></polygon>
                    <polygon id="Path" points="20 14 28 14 28 15 20 15"></polygon>
                </g>
            </g>
        </g>
    </g>
</svg>