<?xml version="1.0" encoding="UTF-8"?>
<svg width="38px" height="36px" viewBox="0 0 38 36" version="1.1" xmlns="http://www.w3.org/2000/svg" xmlns:xlink="http://www.w3.org/1999/xlink">
    <!-- Generator: Sketch 53.1 (72631) - https://sketchapp.com -->
    <title>Empty</title>
    <desc>Created with Sketch.</desc>
    <g id="Email-&amp;-Admin-Dashboard" stroke="none" stroke-width="1" fill="none" fill-rule="evenodd">
        <g id="Case-List-Copy" transform="translate(-60.000000, -184.000000)">
            <g id="Empty" transform="translate(60.000000, 184.000000)">
                <path d="M22.1152726,34.8686592 C38.1755948,29.6604113 44.3671736,1.8132355 29.7227937,10.7571974 C15.0784138,19.7011592 1.59256814,31.3886773 4.36439027,34.1567609 C7.10710012,36.8957715 18.3328819,36.0952615 22.1152726,34.8686592 Z" id="Oval" fill="#FFEFD4"></path>
                <g id="blank" fill="#F9A61E" fill-rule="nonzero" opacity="0.708868118">
                    <path d="M31.9626667,5.6816 L31.9626667,5.6816 C31.9568,5.66613333 31.9504,5.65226667 31.9434667,5.63733333 C31.9378667,5.6218 31.9312667,5.60666667 31.9237333,5.592 L28.7237333,0.258666667 C28.6273333,0.0982 28.4538667,6.66666667e-05 28.2666667,0 L3.73333333,0 C3.54613333,6.66666667e-05 3.37266667,0.0982 3.27626667,0.258666667 L0.0762666667,5.592 C0.0687333333,5.60666667 0.0621333333,5.6218 0.0565333333,5.63733333 C0.0496,5.65173333 0.0432,5.66613333 0.0373333333,5.6816 C0.0141333333,5.7406 0.00146666667,5.80326667 0,5.86666667 L0,31.4666667 C0,31.7612 0.2388,32 0.533333333,32 L31.4666667,32 C31.7612,32 32,31.7612 32,31.4666667 L32,5.86666667 C31.9985333,5.80326667 31.9858667,5.7406 31.9626667,5.6816 Z M28.2666667,1.57013333 L30.5248,5.33333333 L28.2666667,5.33333333 L28.2666667,1.57013333 Z M4.8,1.06666667 L27.2,1.06666667 L27.2,5.33333333 L4.8,5.33333333 L4.8,1.06666667 Z M3.73333333,1.57013333 L3.73333333,5.33333333 L1.4752,5.33333333 L3.73333333,1.57013333 Z M30.9333333,30.9333333 L1.06666667,30.9333333 L1.06666667,6.4 L30.9333333,6.4 L30.9333333,30.9333333 Z" id="Shape"></path>
                    <path d="M11.6666667,11 L18.3333333,11 C19.2538194,11 20,10.5522917 20,10 C20,9.44770833 19.2538194,9 18.3333333,9 L11.6666667,9 C10.7461806,9 10,9.44770833 10,10 C10,10.5522917 10.7461806,11 11.6666667,11 Z M11.6666667,9.66666667 L18.3333333,9.66666667 C18.6401389,9.66666667 18.8888889,9.81591667 18.8888889,10 C18.8888889,10.1840833 18.6401389,10.3333333 18.3333333,10.3333333 L11.6666667,10.3333333 C11.3598611,10.3333333 11.1111111,10.1840833 11.1111111,10 C11.1111111,9.81591667 11.3598611,9.66666667 11.6666667,9.66666667 Z" id="Shape"></path>
                    <rect id="Rectangle" x="4" y="26" width="1" height="1"></rect>
                    <rect id="Rectangle" x="1" y="26" width="1" height="1"></rect>
                    <rect id="Rectangle" x="6" y="26" width="1" height="1"></rect>
                    <rect id="Rectangle" x="7" y="26" width="1" height="1"></rect>
                    <rect id="Rectangle" x="10" y="26" width="1" height="1"></rect>
                    <rect id="Rectangle" x="13" y="26" width="1" height="1"></rect>
                    <rect id="Rectangle" x="15" y="26" width="1" height="1"></rect>
                    <rect id="Rectangle" x="16" y="26" width="1" height="1"></rect>
                    <rect id="Rectangle" x="18" y="26" width="1" height="1"></rect>
                    <rect id="Rectangle" x="21" y="26" width="1" height="1"></rect>
                    <rect id="Rectangle" x="24" y="26" width="1" height="1"></rect>
                    <rect id="Rectangle" x="25" y="26" width="1" height="1"></rect>
                    <rect id="Rectangle" x="27" y="26" width="1" height="1"></rect>
                    <rect id="Rectangle" x="30" y="26" width="1" height="1"></rect>
                </g>
            </g>
        </g>
    </g>
</svg>