<?xml version="1.0" encoding="UTF-8"?>
<svg width="15px" height="15px" viewBox="0 0 15 15" version="1.1" xmlns="http://www.w3.org/2000/svg" xmlns:xlink="http://www.w3.org/1999/xlink">
    <!-- Generator: sketchtool 53.1 (72631) - https://sketchapp.com -->
    <title>CB44E6A3-F876-4FD1-99B1-7B0C7417B402</title>
    <desc>Created with sketchtool.</desc>
    <g id="Mobile-R2" stroke="none" stroke-width="1" fill="none" fill-rule="evenodd">
        <g id="1ab" transform="translate(-137.000000, -613.000000)" fill="#FFFFFF" fill-rule="nonzero">
            <g id="Group-8" transform="translate(0.000000, 548.000000)">
                <g id="Group-6" transform="translate(94.000000, 55.000000)">
                    <g id="Group-5">
                        <g id="call-copy" transform="translate(43.000000, 10.000000)">
                            <g id="Shape-2">
                                <path d="M14.6063934,11.5719911 L11.5703388,9.54714706 C11.1850541,9.29225458 10.6685973,9.37612508 10.3837566,9.73987635 L9.49938555,10.8770348 C9.3857305,11.0269061 9.17913021,11.0703793 9.01471118,10.9790387 L8.84648413,10.8862919 C8.28881275,10.5823017 7.59493107,10.2038445 6.19688602,8.80520226 C4.79884096,7.40656002 4.41964903,6.7121018 4.11568035,6.15541617 L4.02343814,5.98717718 C3.93084442,5.82277578 3.97349436,5.615282 4.12341358,5.50071075 L5.25972979,4.61654059 C5.62330879,4.33165043 5.7072905,3.81530349 5.45270904,3.4298742 L3.42800868,0.393604212 C3.16710003,0.00111491917 2.64364234,-0.116708035 2.23972751,0.126115055 L0.970159534,0.888800437 C0.571253725,1.12333315 0.278591959,1.50316717 0.153542106,1.94870901 C-0.303626565,3.61457677 0.0402971466,6.48960918 4.27517823,10.7252887 C7.64393749,14.0940233 10.1518183,14.9999594 11.8755671,14.9999594 C12.272276,15.0016585 12.6674323,14.9500414 13.050403,14.8464849 C13.4960011,14.7215726 13.8758668,14.4288608 14.1102364,14.0298095 L14.8736293,12.7609131 C15.1167866,12.3568818 14.9990306,11.8330647 14.6063934,11.5719911 Z M14.5691249,12.5917159 L13.7938461,13.883941 C13.6225459,14.1770851 13.3444403,14.39262 13.0177921,14.4854052 C11.4524751,14.9151332 8.71775461,14.5591981 4.57926705,10.4209827 C0.44077948,6.28276733 0.084850764,3.54846526 0.514607033,1.98301263 C0.607517636,1.65599835 0.823335015,1.37755321 1.11685619,1.20599594 L2.40916636,0.430768176 C2.58756307,0.323433075 2.81882579,0.375460783 2.93406952,0.548806972 L4.05361845,2.22952558 L4.9932798,3.63877582 C5.10581016,3.80893178 5.06883675,4.03698905 4.90830059,4.16289909 L3.75136081,5.06278465 C3.39927852,5.33198704 3.2987347,5.8190797 3.51550623,6.20566495 L3.60737323,6.37257103 C3.93256034,6.96893678 4.33685267,7.71083104 5.81286701,9.18650979 C7.28888136,10.6621587 8.03058588,11.0664543 8.6267225,11.3915902 L8.79387809,11.4836897 C9.18045896,11.7004171 9.66761347,11.5999097 9.93683357,11.2478506 L10.8367783,10.0909869 C10.9627265,9.93055074 11.1907093,9.89360958 11.3609361,10.0060133 L14.4511082,12.0668472 C14.624585,12.1819939 14.6766161,12.4133607 14.5691249,12.5917159 Z" id="Shape"></path>
                            </g>
                            <g id="Group-7" transform="translate(8.000000, 2.000000)">
                                <path d="M0.249991211,0.499982422 C2.59612342,0.502589854 4.49738085,2.40387658 4.50001758,4.75000879 C4.50001758,4.8880855 4.61193208,5 4.75000879,5 C4.8880855,5 5,4.8880855 5,4.75000879 C4.9970996,2.12784034 2.87215966,0.00287110497 0.249991211,0 C0.1119145,0 0,0.1119145 0,0.249991211 C0,0.388067922 0.1119145,0.499982422 0.249991211,0.499982422 Z" id="Path"></path>
                                <path d="M0.247244469,2.03295048 C1.74861789,2.03471796 2.96528204,3.25138211 2.96704952,4.75275553 C2.96704952,4.88931514 3.07776335,5 3.21429399,5 C3.35085361,5 3.46153846,4.88931514 3.46153846,4.75275553 C3.45948123,2.97837879 2.02159224,1.54048979 0.247244469,1.53846154 C0.110684855,1.53846154 0,1.64914639 0,1.78570601 C0,1.92226562 0.110684855,2.03295048 0.247244469,2.03295048 Z" id="Path"></path>
                                <path d="M0.240377573,3.55767822 C0.90384559,3.55846699 1.44150484,4.09612624 1.44232178,4.75962243 C1.44232178,4.89238927 1.54996067,5 1.68269935,5 C1.81543803,5 1.92307692,4.89238927 1.92307692,4.75962243 C1.92200645,3.8307334 1.1692666,3.07796538 0.240377573,3.07692308 C0.107610726,3.07692308 0,3.1845338 0,3.31730065 C0,3.4500675 0.107610726,3.55767822 0.240377573,3.55767822 Z" id="Path"></path>
                            </g>
                        </g>
                    </g>
                </g>
            </g>
        </g>
    </g>
</svg>