<?xml version="1.0" encoding="UTF-8"?>
<svg width="49px" height="63px" viewBox="0 0 49 63" version="1.1" xmlns="http://www.w3.org/2000/svg" xmlns:xlink="http://www.w3.org/1999/xlink">
    <!-- Generator: sketchtool 53.1 (72631) - https://sketchapp.com -->
    <title>31695EE8-312C-46D4-BF75-4C111AD71384</title>
    <desc>Created with sketchtool.</desc>
    <g id="Mobile-R2" stroke="none" stroke-width="1" fill="none" fill-rule="evenodd">
        <g id="1ab" transform="translate(-31.000000, -147.000000)">
            <g id="Group-2" transform="translate(31.000000, 148.000000)">
                <path d="M26.1073047,53.4077426 C49.2530631,46.0776159 58.1762207,6.88529441 37.071085,19.4730926 C15.9659492,32.0608908 -3.46953415,48.5099902 0.525150685,52.4058116 C4.47787958,56.2607155 20.6562121,55.1340718 26.1073047,53.4077426 Z" id="Oval" fill-opacity="0.3" fill="#00C7C5"></path>
                <path d="M46.3712568,59.5893706 C33.2230827,58.117225 23.2830575,53.227043 16.826428,45.0552915 C9.85397583,36.230903 7.1382998,23.6936247 8.97304392,8.79893358 C9.02398938,8.38529037 9.54688792,8.08619451 10.0089349,8.11306364 C10.4738123,8.13144778 10.485841,8.42347282 10.4922092,8.56418222 C10.4922092,8.56559638 10.4929168,8.56630347 10.4929168,8.56771763 C10.4886713,8.69569955 10.4844259,8.82297438 10.4801804,8.9509563 C10.4235744,10.690379 10.3705062,12.3343457 10.3705062,12.9488003 C10.3705062,13.3391098 10.6875002,13.6558827 11.078082,13.6558827 C11.4686639,13.6558827 11.7856578,13.3391098 11.7856578,12.9488003 C11.7856578,12.3569723 11.838726,10.724319 11.8946245,8.99691666 C11.9547685,7.12385534 12.0177427,5.1871566 12.0177427,4.41078011 C12.0177427,3.64147444 12.4974791,3.36783355 12.9078731,3.36783355 C13.3302959,3.36783355 13.7824368,3.65066651 13.7824368,4.44401298 L13.7824368,11.762316 C13.7824368,12.1526255 14.0994308,12.4693984 14.4900127,12.4693984 C14.8805945,12.4693984 15.1975885,12.1526255 15.1975885,11.762316 L15.1975885,4.44401298 L15.1975885,3.19884085 C15.1975885,3.14368842 15.1784839,3.09489973 15.1664552,3.0439898 C15.1784839,2.99237278 15.1975885,2.9435841 15.1975885,2.88843167 C15.1975885,2.22801669 15.3766052,1.87094007 15.5273188,1.68709864 C16.0084704,1.09880607 17.0075675,1.49265098 17.008275,2.80994552 L17.008275,11.0326069 C17.008275,11.4229164 17.325269,11.7396893 17.7158509,11.7396893 C18.1064327,11.7396893 18.4234267,11.4229164 18.4234267,11.0326069 L18.4234267,4.96654689 C18.4234267,4.56350991 18.5203646,4.24673699 18.7029191,4.05016808 C18.8741525,3.86632665 19.0828874,3.82743712 19.2279404,3.82743712 C19.6892799,3.82743712 20.1555723,4.20643329 20.1555723,4.93189985 C20.1555723,5.7422163 20.1492041,6.61758433 20.1421284,7.56931726 C20.1272693,9.57884549 20.1102875,12.0493914 20.1484966,14.9816622 C17.9443979,14.9745914 15.6568052,16.3852208 13.3246353,19.209308 C13.0755686,19.5105251 13.1187307,19.955987 13.420158,20.20488 C13.5517671,20.3137707 13.7116792,20.3668019 13.8701762,20.3668019 C14.0739581,20.3668019 14.2763248,20.2791237 14.4164248,20.1094239 C17.0252569,16.9501797 19.4494116,15.803292 21.6209619,16.6963371 C21.6499725,16.7083575 21.6796907,16.7055292 21.7087013,16.7133071 C21.7674301,16.7288629 21.8261589,16.747247 21.8863028,16.7479541 C21.9365407,16.7479541 21.9839483,16.7323983 22.032771,16.721792 C22.0731028,16.7133071 22.1134346,16.7126 22.1523513,16.6970442 C22.2174483,16.6708821 22.2733468,16.6291643 22.3285377,16.5853251 C22.3448119,16.5711835 22.3660392,16.5662339 22.3816059,16.5513852 C22.3837286,16.549971 22.3851438,16.5478498 22.3872665,16.5464356 C22.3879741,16.5457285 22.3886816,16.5450214 22.3893892,16.5443144 C24.6536319,14.362258 25.9760911,13.9175032 26.6794215,13.9535644 C26.8372109,13.958514 26.9815563,13.9860902 27.1159958,14.0377072 L20.6367239,20.950852 C20.6310633,20.9565086 20.6296481,20.9649936 20.6239875,20.9706503 C20.5900239,21.0095398 20.568089,21.0562073 20.5433239,21.1021676 C20.5235118,21.1382288 20.4987466,21.1707546 20.4860102,21.2089371 C20.4725663,21.2471195 20.4725663,21.2881303 20.4669057,21.328434 C20.4584148,21.380051 20.4478011,21.4295468 20.451339,21.4811638 C20.4520466,21.4896488 20.4485087,21.4967196 20.4492163,21.5052046 C22.0455074,37.3834473 30.4691976,46.0918743 46.200731,48.1282717 C46.2318643,48.1318071 46.2622901,48.1339284 46.2927159,48.1339284 C46.6429659,48.1339284 46.9479311,47.8744291 46.9939235,47.5180596 C47.0434538,47.1305784 46.7703295,46.775623 46.3832856,46.7254202 C31.5065038,44.8000348 23.4953302,36.6042425 21.8947937,21.6791469 L28.6924747,14.4258954 C28.9443717,14.156497 28.9479096,13.7386113 28.6995505,13.4663846 C28.1617928,12.877385 27.4980867,12.5655616 26.7261215,12.5408137 C25.3491789,12.4969746 23.7118484,13.3871914 21.7256831,15.2340906 C21.6733225,15.2171207 21.6202543,15.2001507 21.5671861,15.1845949 C21.5254391,12.1695955 21.5431285,9.63329083 21.5579876,7.58063058 C21.5650634,6.62465515 21.5714316,5.74645879 21.5714316,4.93260693 C21.5714316,3.2971253 20.3643072,2.41397937 19.228648,2.41397937 C18.9385419,2.41397937 18.6611722,2.47266721 18.4043221,2.57802249 C18.3024312,0.907186739 17.156866,0 16.0650765,0 C15.4310885,0 14.8508763,0.280711719 14.432699,0.791932306 C14.1348096,1.15537267 13.942349,1.62416831 13.848949,2.16296511 C13.5581353,2.03003362 13.2411413,1.9543758 12.9078731,1.9543758 C11.7899033,1.9543758 10.6025911,2.81560218 10.6025911,4.41148719 C10.6025911,4.8654341 10.5799486,5.74645879 10.5488153,6.78021328 C10.3959789,6.73849542 10.2367744,6.70809088 10.065541,6.70102005 C8.98578029,6.6628376 7.72063471,7.38123334 7.56779833,8.62711255 C5.68564662,23.9043352 8.50321357,36.8043468 15.715534,45.9320737 C22.4148619,54.4114061 32.6761266,59.4790657 46.2134674,60.9957575 C46.2403553,60.9985858 46.2665356,61 46.2927159,61 C46.6486265,61 46.9550068,60.7327228 46.9953387,60.3714037 C47.0399159,59.9825084 46.7597159,59.6325026 46.3712568,59.5893706 Z" id="Path-Copy-4" stroke="#F9A61E" fill="#F9A61E" fill-rule="nonzero"></path>
            </g>
        </g>
    </g>
</svg>