<?xml version="1.0" encoding="UTF-8"?>
<svg width="300px" height="172px" viewBox="0 0 300 172" version="1.1" xmlns="http://www.w3.org/2000/svg" xmlns:xlink="http://www.w3.org/1999/xlink">
    <!-- Generator: Sketch 53.2 (72643) - https://sketchapp.com -->
    <title>Mend logo</title>
    <desc>Created with Sketch.</desc>
    <g id="Mend-logo" stroke="none" stroke-width="1" fill="none" fill-rule="evenodd">
        <g id="Mend-2" transform="translate(51.000000, 52.000000)" fill="#F9A61E" fill-rule="nonzero">
            <path d="M0,4.75524476 L14.499515,4.75524476 L24.9660524,33.2867133 C25.92629,36.0130672 26.7584834,38.612575 27.4626576,41.0853147 L28.7109602,44.9846154 L29.0950533,44.9846154 L30.8234724,39.5636364 C31.8477258,36.139843 32.519882,34.0475563 32.8399612,33.2867133 L43.0184287,4.75524476 L57.5179437,4.75524476 L57.5179437,66.8587413 L45.5150339,66.8587413 L45.5150339,42.2265734 C45.5150339,38.7393765 45.9311307,33.0965425 46.7633366,25.2979021 L47.1474297,21.5888112 L46.7633366,21.5888112 L41.6741028,36.1398601 L32.3598448,61.3426573 L24.8700291,61.3426573 L15.5557711,36.1398601 L10.5625606,21.5888112 L10.1784675,21.5888112 L10.5625606,25.2979021 C11.3947665,33.0965425 11.8108632,38.7393765 11.8108632,42.2265734 L11.8108632,66.8587413 L0,66.8587413 L0,4.75524476 Z M104.56935,41.1804196 C104.56935,43.5897556 104.377306,45.5552371 103.99321,47.0769231 L74.6100873,47.0769231 C75.2502457,50.8177343 76.8026065,53.5757487 79.2672163,55.351049 C81.7318261,57.1263492 84.5964919,58.013986 87.8612997,58.013986 C91.2541392,58.013986 94.7749575,56.9678426 98.4238603,54.8755245 L102.744908,62.7692308 C100.376322,64.4177239 97.7357081,65.7016271 94.8229874,66.620979 C91.9102667,67.5403309 89.0135935,68 86.1328807,68 C81.651772,68 77.6028309,67.0172592 73.985936,65.0517483 C70.3690411,63.0862373 67.520379,60.2331189 65.4398642,56.4923077 C63.3593494,52.7514964 62.3191077,48.376715 62.3191077,43.3678322 C62.3191077,38.4223529 63.3593494,34.0792728 65.4398642,30.3384615 C67.520379,26.5976503 70.257015,23.7128307 73.6498545,21.6839161 C77.042694,19.6550015 80.6595346,18.6405594 84.500485,18.6405594 C90.9660847,18.6405594 95.9272378,20.7169956 99.3840931,24.8699301 C102.840948,29.0228646 104.56935,34.4596401 104.56935,41.1804196 Z M93.3346266,38.4223776 C93.3346266,35.3790058 92.6304629,32.9855565 91.2221145,31.241958 C89.813766,29.4983596 87.6692676,28.6265734 84.7885548,28.6265734 C82.4199688,28.6265734 80.3234815,29.434957 78.4990301,31.0517483 C76.6745787,32.6685396 75.4422922,35.1253914 74.8021339,38.4223776 L93.3346266,38.4223776 Z M108.122211,19.7818182 L118.780795,19.7818182 L119.741028,25.8685315 L120.125121,25.8685315 C122.429691,23.6494062 124.814246,21.8899832 127.278855,20.5902098 C129.743465,19.2904364 132.480101,18.6405594 135.488846,18.6405594 C140.482081,18.6405594 144.17894,20.2731771 146.579534,23.5384615 C148.980128,26.8037459 150.180407,31.4796898 150.180407,37.5664336 L150.180407,66.8587413 L137.025218,66.8587413 L137.025218,39.1832168 C137.025218,35.6960199 136.529103,33.2550186 135.536857,31.8601399 C134.544612,30.4652611 132.928236,29.7678322 130.687682,29.7678322 C128.895238,29.7678322 127.326874,30.1482479 125.982541,30.9090909 C124.638209,31.6699339 123.037837,32.9379865 121.181377,34.7132867 L121.181377,66.8587413 L108.122211,66.8587413 L108.122211,19.7818182 Z M173.033948,68 C167.080475,68 162.359377,65.8126093 158.870514,61.4377622 C155.381651,57.0629152 153.637245,51.0396654 153.637245,43.3678322 C153.637245,38.4223529 154.565461,34.0792728 156.42192,30.3384615 C158.27838,26.5976503 160.726949,23.7128307 163.767701,21.6839161 C166.808454,19.6550015 170.025201,18.6405594 173.418041,18.6405594 C175.914658,18.6405594 178.059157,19.0526765 179.8516,19.8769231 C181.644044,20.7011696 183.468468,21.9692222 185.324927,23.6811189 L184.844811,16.358042 L184.844811,0 L198,0 L198,66.8587413 L187.245393,66.8587413 L186.28516,62.0083916 L185.99709,62.0083916 C184.204647,63.7836919 182.172174,65.2261017 179.899612,66.3356643 C177.62705,67.445227 175.338518,68 173.033948,68 Z M176.394762,57.3482517 C178.059174,57.3482517 179.563524,56.9836866 180.907856,56.2545455 C182.252189,55.5254043 183.564494,54.3683063 184.844811,52.7832168 L184.844811,32.620979 C182.412209,30.4018537 179.595554,29.2923077 176.394762,29.2923077 C173.770113,29.2923077 171.5616,30.4969577 169.769156,32.9062937 C167.976713,35.3156298 167.080504,38.7393717 167.080504,43.1776224 C167.080504,47.8694873 167.88069,51.4041839 169.481086,53.7818182 C171.081482,56.1594524 173.386018,57.3482517 176.394762,57.3482517 Z" id="Mend"></path>
        </g>
    </g>
</svg>