<?xml version="1.0" encoding="UTF-8"?>
<svg width="60px" height="48px" viewBox="0 0 60 48" version="1.1" xmlns="http://www.w3.org/2000/svg" xmlns:xlink="http://www.w3.org/1999/xlink">
    <!-- Generator: sketchtool 53.1 (72631) - https://sketchapp.com -->
    <title>CAF22A4C-2D4D-4DFF-9746-A1A5D5E49A9D</title>
    <desc>Created with sketchtool.</desc>
    <g id="Mobile-R2" stroke="none" stroke-width="1" fill="none" fill-rule="evenodd">
        <g id="4" transform="translate(-22.000000, -153.000000)">
            <g id="Group" transform="translate(22.000000, 154.000000)">
                <path d="M29.3674581,33.031449 C14.3713532,36.821794 -2.92550936,34.5527825 0.419701794,37.8106616 C3.76491295,41.0685408 10.8092085,49.6975054 24.0225042,46.1666107 C34.3210796,43.4145959 42.5783799,43.2519769 52.0163538,42.7264966 C55.2319077,42.5474635 63.6992222,36.6576541 58.1721444,35.6220044 C50.3935704,34.1644753 40.9128533,30.1132892 29.3674581,33.031449 Z" id="Path-2" fill="#CBE7D4"></path>
                <path d="M53.7933852,30.756424 L53.7933852,21.9716491 C53.7933852,21.6640472 53.5551683,21.4150085 53.2609329,21.4150085 C52.9669749,21.4150085 52.7284805,21.6640472 52.7284805,21.9716491 L52.7284805,29.7338867 C52.1530438,29.3190155 51.4921928,29.0224304 50.7728275,28.8815308 L47.5057332,28.2425537 C47.5553733,27.9778595 47.5817186,27.7044678 47.5817186,27.4246979 L47.5817186,24.3286743 C49.5737004,22.5645294 50.8399387,19.9804993 50.9614044,17.1462708 L51.7700663,17.1462708 C52.117547,17.1462708 52.4442286,17.0523376 52.7284805,16.8879547 L52.7284805,19.7453766 C52.7284805,20.0526886 52.9666975,20.3020172 53.2609329,20.3020172 C53.554891,20.3020172 53.7933852,20.0526886 53.7933852,19.7453766 L53.7933852,10.760849 C53.7933852,4.82740786 49.1757478,0 43.5001386,0 C37.8242521,0 33.206892,4.82740786 33.206892,10.760849 L33.206892,30.7607727 C32.4500886,31.7250366 32,32.9621124 32,34.2881927 L32,36.9635467 C32,37.5349731 32.4448196,38 32.9914152,38 L54.0088621,38 C54.5554577,38 54.9999999,37.5349731 54.9999999,36.9635467 L54.9999999,34.2928314 C55.0002772,32.9577637 54.5510206,31.7192383 53.7933852,30.756424 L53.7933852,30.756424 Z M46.5170912,27.4246979 C46.5170912,29.1639099 45.1637749,30.5787048 43.5001386,30.5787048 C41.8365024,30.5787048 40.483186,29.1639099 40.483186,27.4246979 L40.483186,25.1650848 C41.2793686,25.6924438 42.1590243,26.1023864 43.1035726,26.3685303 C43.2219877,26.4018707 43.3437307,26.4186859 43.465751,26.4186859 C43.5861075,26.4186859 43.7067412,26.4021606 43.8237698,26.3696899 L43.8725779,26.3560638 L43.8728552,26.3560638 C44.826555,26.09021 45.7142529,25.6776581 46.5170912,25.1465301 L46.5170912,27.4246979 Z M49.9064831,16.6974792 C49.9064831,20.7157288 47.3127192,24.2451782 43.5985868,25.2801819 L43.5495014,25.293808 C43.4943149,25.3094635 43.436078,25.3091735 43.3806142,25.2935181 C39.6789611,24.2512665 37.0937941,20.7244263 37.0937941,16.7169037 L37.0937941,10.5448608 C37.0937941,10.4802093 37.1254084,10.4375915 37.1445434,10.4181671 C37.1631238,10.3987427 37.2036124,10.3665619 37.2643452,10.3665619 L37.2665638,10.3665619 C37.3553058,10.3677215 37.4429386,10.3683014 37.5314033,10.3683014 C40.8237336,10.3680114 43.7414061,9.57972719 46.2159229,8.02258301 C46.8373946,9.09382631 48.0071258,9.81542969 49.7692103,10.219284 C49.8501874,10.2378387 49.9067605,10.310028 49.9067605,10.3943939 L49.9067605,16.6974792 L49.9064831,16.6974792 Z M51.7703437,16.0329895 L50.9894136,16.0329895 L50.9894136,14.1035919 L51.7703437,14.1035919 C52.2789466,14.1035919 52.6929837,14.5361481 52.6929837,15.0681458 C52.6929837,15.6001434 52.2789466,16.0329895 51.7703437,16.0329895 Z M43.5001386,1.11328125 C48.5886636,1.11328125 52.7284805,5.44116211 52.7284805,10.760849 L52.7284805,13.2483368 C52.4442286,13.0842438 52.117547,12.9903107 51.7703437,12.9903107 L50.9713878,12.9903107 L50.9713878,10.3943939 C50.9713878,9.78266909 50.570662,9.26342773 49.9971664,9.13209536 C48.2783437,8.73809814 47.304677,8.06896973 46.9327923,7.02613832 C46.8762192,6.86726381 46.7533669,6.74404911 46.5989003,6.69128418 C46.444711,6.63880922 46.2761011,6.66258238 46.1407694,6.75622559 C43.6765134,8.45658873 40.6967216,9.2941589 37.2795978,9.25357059 C36.9448738,9.25096129 36.63289,9.38171387 36.3960596,9.62611391 C36.1592293,9.87080385 36.0288894,10.1969604 36.0288894,10.5448608 L36.0288894,12.9903107 L35.2299336,12.9903107 C34.8827303,12.9903107 34.5560485,13.0839538 34.2717967,13.2483368 L34.2717967,10.760849 C34.2717967,5.44116211 38.4116136,1.11328125 43.5001386,1.11328125 Z M36.0108637,14.1035919 L36.0108637,16.0329895 L35.2299336,16.0329895 C34.7210533,16.0329895 34.3072935,15.6001434 34.3072935,15.0681458 C34.3072935,14.5361481 34.7210533,14.1035919 35.2299336,14.1035919 L36.0108637,14.1035919 Z M53.9353725,36.8867188 L50.9713878,36.8867188 L50.9713878,34.9944305 C50.9713878,34.6868286 50.7331709,34.4377899 50.4389355,34.4377899 C50.1449775,34.4377899 49.9064831,34.6868286 49.9064831,34.9944305 L49.9064831,36.8867188 L37.0935168,36.8867188 L37.0935168,34.9944305 C37.0935168,34.6868286 36.8552998,34.4377899 36.5610644,34.4377899 C36.2671064,34.4377899 36.0288894,34.6868286 36.0288894,34.9944305 L36.0288894,36.8867188 L33.0649047,36.8867188 L33.0649047,34.2881927 C33.0649047,32.2028198 34.4492808,30.3934479 36.3569577,29.9855347 C36.6450921,29.9240723 36.8308957,29.6300964 36.7718268,29.3288727 C36.7130352,29.0276489 36.4315565,28.8334046 36.1436995,28.8948669 C35.4573351,29.0418548 34.8250479,29.3323517 34.2715194,29.7330169 L34.2715194,16.8879547 C34.5560485,17.0523376 34.8827303,17.1462708 35.2299336,17.1462708 L36.0377636,17.1462708 C36.1542375,19.9857178 37.4221397,22.5778656 39.4182813,24.3466491 L39.4182813,27.4246979 C39.4182813,27.7012787 39.4443493,27.9717712 39.4928801,28.2338562 L38.281551,28.4724579 C37.9925847,28.5292816 37.8023439,28.8203583 37.8569757,29.1224518 C37.9049519,29.3897552 38.128471,29.5761719 38.3794446,29.5761719 C38.4121682,29.5761719 38.4451692,29.5729828 38.4784474,29.5663147 L39.8342597,29.2993011 C40.4992705,30.7149658 41.8925208,31.691986 43.5001386,31.691986 C45.1044286,31.691986 46.495183,30.7187347 47.1618577,29.3077087 L50.5770403,29.9756775 C52.5229872,30.3563385 53.9353725,32.1720886 53.9353725,34.2928314 L53.9353725,36.8867188 Z" id="Shape" stroke="#F7A722" stroke-width="0.5" fill="#F7A722" fill-rule="nonzero"></path>
                <path d="M43.5,21 C43.2236979,21 43,21.3152493 43,21.7038123 L43,22.2961877 C43,22.6847507 43.2236979,23 43.5,23 C43.7760417,23 44,22.6847507 44,22.2961877 L44,21.7038123 C44,21.3152493 43.7760417,21 43.5,21 Z" id="Path" stroke="#F7A722" stroke-width="0.5" fill="#F7A722" fill-rule="nonzero"></path>
                <path d="M44.4192232,12 L42.5807767,12 C41.7092382,12 41,12.7144614 41,13.5927078 L41,14.1112638 C41,14.9892208 41.7092382,15.7036823 42.5807767,15.7036823 C42.8855566,15.7036823 43.1323107,15.4551111 43.1323107,15.1480866 C43.1323107,14.8413513 42.8855566,14.5927802 42.5807767,14.5927802 C42.3173618,14.5927802 42.1027806,14.3766187 42.1027806,14.1112638 L42.1027806,13.5927078 C42.1027806,13.3270636 42.3173618,13.1111915 42.5807767,13.1111915 L44.4192232,13.1111915 C44.6826381,13.1111915 44.8972193,13.3270636 44.8972193,13.5927078 L44.8972193,15.5847501 L43.1834425,17.3108587 C43.0800299,17.4150329 43.0220039,17.5565362 43.0220039,17.703827 L43.0220039,19.4446937 C43.0220039,19.7514288 43.2687579,20 43.5735378,20 C43.8780305,20 44.1250718,19.7514288 44.1250718,19.4446937 L44.1250718,17.9338783 L45.8385614,16.2077697 C45.941974,16.1035955 46,15.9623815 46,15.8148015 L46,13.5927078 C46,12.7144614 45.2907618,12 44.4192232,12 L44.4192232,12 Z" id="Path" stroke="#F7A722" stroke-width="0.5" fill="#F7A722" fill-rule="nonzero"></path>
                <path d="M15.5,20 C15.2236979,20 15,20.3152493 15,20.7038123 L15,21.2961877 C15,21.6847507 15.2236979,22 15.5,22 C15.7760417,22 16,21.6847507 16,21.2961877 L16,20.7038123 C16,20.3152493 15.7760417,20 15.5,20 Z" id="Path-Copy-2" stroke="#F7A722" stroke-width="0.5" fill="#F7A722" fill-rule="nonzero"></path>
                <path d="M16.4192232,11 L14.5807767,11 C13.7092382,11 13,11.7144614 13,12.5927078 L13,13.1112638 C13,13.9892208 13.7092382,14.7036823 14.5807767,14.7036823 C14.8855566,14.7036823 15.1323107,14.4551111 15.1323107,14.1480866 C15.1323107,13.8413513 14.8855566,13.5927802 14.5807767,13.5927802 C14.3173618,13.5927802 14.1027806,13.3766187 14.1027806,13.1112638 L14.1027806,12.5927078 C14.1027806,12.3270636 14.3173618,12.1111915 14.5807767,12.1111915 L16.4192232,12.1111915 C16.6826381,12.1111915 16.8972193,12.3270636 16.8972193,12.5927078 L16.8972193,14.5847501 L15.1834425,16.3108587 C15.0800299,16.4150329 15.0220039,16.5565362 15.0220039,16.703827 L15.0220039,18.4446937 C15.0220039,18.7514288 15.2687579,19 15.5735378,19 C15.8780305,19 16.1250718,18.7514288 16.1250718,18.4446937 L16.1250718,16.9338783 L17.8385614,15.2077697 C17.941974,15.1035955 18,14.9623815 18,14.8148015 L18,12.5927078 C18,11.7144614 17.2907618,11 16.4192232,11 L16.4192232,11 Z" id="Path-Copy" stroke="#F7A722" stroke-width="0.5" fill="#F7A722" fill-rule="nonzero"></path>
                <path d="M24.2461287,38 L28,38 L28,33.2991841 C28,30.3392361 25.1985414,27.7033191 21.0163341,26.7278881 L19.0103567,26.2603375 C19.0103567,26.1743927 18.9978687,26.0906731 18.976223,26.0097349 L17.1804589,28.6487113 C16.4116188,29.6519563 14.2478771,29.615242 13.5560458,28.5875209 L12.0262746,26 C12.0029638,26.0839978 11.9896433,26.170777 11.9896433,26.2600594 L9.98408209,26.7278881 C5.80145864,27.703041 3,30.3392361 3,33.2991841 L3,38 L24.2461287,38 Z" id="Path" stroke="#F7A722" stroke-width="1.5" fill-rule="nonzero"></path>
                <path d="M16.0251846,25 L14.9748154,25 C11.1227875,25 8,21.3530032 8,16.8543512 L8,10.1456488 C8,5.6469968 11.1227875,2 14.9748154,2 L16.0251846,2 C19.8772125,2 23,5.6469968 23,10.1456488 L23,16.8543512 C23,21.3530032 19.8772125,25 16.0251846,25 Z" id="Path" stroke="#F7A722" stroke-width="1.5" fill-rule="nonzero"></path>
                <path d="M15.3413991,2 L14.7645307,2 C11.0289156,2 8,4.77567926 8,8.2004797 C8,9.08090767 8.68006735,8.32390424 9.55036348,8.59863794 C11.4098486,9.18650419 12.5440869,9.05942264 13.4942789,8.66035021 C16.4903801,7.40233484 18.2794806,7.53673043 20.3734224,7.98837246 C20.4680611,8.00894329 20.5717358,8.01397161 20.683495,8.00437196 C21.5571202,7.93260294 22.150158,7.77443682 21.9665873,6.95023559 C21.3355037,4.12518654 18.6100028,2 15.3413991,2 L15.3413991,2 Z" id="Path" stroke="#F7A722" fill-rule="nonzero"></path>
                <path d="M15.8923882,33.5979793 C15.6887501,33.1080539 15.1164238,32.872026 14.6136326,33.0700809 C14.1112233,33.268136 13.8686151,33.8261893 14.0718712,34.3161147 L14.1074028,34.40174 C14.2621371,34.7740238 14.6300612,35 15.0182344,35 C15.1408757,35 15.2654273,34.9772907 15.3861584,34.9296384 C15.8889496,34.7315834 16.1315578,34.1735301 15.9279198,33.6839769 L15.8923882,33.5979793 Z" id="Path" stroke="#F7A722" fill-rule="nonzero"></path>
            </g>
        </g>
    </g>
</svg>