<?xml version="1.0" encoding="UTF-8"?>
<svg width="70px" height="55px" viewBox="0 0 70 55" version="1.1" xmlns="http://www.w3.org/2000/svg" xmlns:xlink="http://www.w3.org/1999/xlink">
    <!-- Generator: sketchtool 53.1 (72631) - https://sketchapp.com -->
    <title>3B4E5278-F513-4BE7-8138-1622A5107AA4</title>
    <desc>Created with sketchtool.</desc>
    <g id="Mobile" stroke="none" stroke-width="1" fill="none" fill-rule="evenodd">
        <g id="6" transform="translate(-22.000000, -236.000000)">
            <g id="Group" transform="translate(22.000000, 236.000000)">
                <path d="M44.5745026,52.6647274 C67.2478985,45.4841951 75.9889509,7.09171698 55.3145322,19.4226213 C34.6401135,31.7535256 15.6012727,47.8669292 19.5144333,51.6832441 C23.3864943,55.4594764 39.2346568,54.3558254 44.5745026,52.6647274 Z" id="Oval" fill="#ADE9E8"></path>
                <g id="ellipse" fill="#F9A61E" fill-rule="nonzero">
                    <path d="M43.6153524,12.7410158 C24.4645505,0.331510962 5.25874629,-3.18334879 0.953566017,2.94640662 C-3.35161426,9.08116183 7.233829,24.8605322 26.3896311,37.2600374 C45.5404331,49.6645425 64.7412371,53.184402 69.0464173,47.0546466 C73.3515976,40.9248912 62.7661544,25.1455208 43.6153524,12.7410158 Z M64.7912392,44.2947567 C61.921119,48.374594 46.2854643,44.1897609 29.2647515,33.1652008 C12.2340384,22.1506403 2.33862402,9.7911335 5.2087442,5.7062965 C8.07886438,1.62145949 23.7195193,5.80629251 40.740232,16.8308526 C57.7559446,27.8504129 67.6613593,40.2099197 64.7912392,44.2947567 Z" id="Shape"></path>
                </g>
            </g>
        </g>
    </g>
</svg>