<?xml version="1.0" encoding="UTF-8"?>
<svg width="44px" height="34px" viewBox="0 0 44 34" version="1.1" xmlns="http://www.w3.org/2000/svg" xmlns:xlink="http://www.w3.org/1999/xlink">
    <!-- Generator: sketchtool 53.1 (72631) - https://sketchapp.com -->
    <title>59898EB4-50F7-4941-BBE0-326B61D7360B</title>
    <desc>Created with sketchtool.</desc>
    <g id="Mobile" stroke="none" stroke-width="1" fill="none" fill-rule="evenodd">
        <g id="5" transform="translate(-30.000000, -142.000000)">
            <g id="Group-2" transform="translate(30.000000, 142.000000)">
                <path d="M23.443294,32.5753486 C44.2272403,26.0168142 52.2398717,-9.04999974 33.2883212,2.21276705 C14.3367707,13.4755338 -3.11550005,28.1931491 0.47156388,31.6788841 C4.02095309,35.1280086 18.5484354,34.119959 23.443294,32.5753486 Z" id="Oval" fill="#CBE7D4"></path>
                <g id="Group" transform="translate(1.000000, 0.000000)" fill="#F7A722" fill-rule="nonzero">
                    <g id="chat" transform="translate(18.500000, 16.000000) scale(-1, 1) translate(-18.500000, -16.000000) ">
                        <path d="M33.9821757,0 L3.01796882,0 C1.35390177,0 0,1.33510897 0,2.97614922 L0,20.829624 C0,22.4707355 1.35390177,23.8058444 3.01804109,23.8058444 L4.78241321,23.8058444 L4.78241321,31.1515448 C4.78241321,31.4947466 4.99212888,31.8040985 5.31356763,31.9354359 C5.42001531,31.9789062 5.53173841,32 5.64259431,32 C5.86654635,32 6.08666831,31.913772 6.25121778,31.7515065 L14.3086496,23.8057732 L33.9820312,23.8057732 C35.6461705,23.8057732 37,22.4706642 37,20.8295527 L37,2.97614922 C37.0001445,1.33510897 35.6462428,0 33.9821757,0 Z M33.9821757,22.1087916 L13.9518006,22.1087916 C13.7292216,22.1087916 13.5270216,22.1928817 13.3743237,22.3296351 C13.3729507,22.3308466 13.3713608,22.3323431 13.3699878,22.3335545 C13.3595092,22.3430325 13.3488139,22.3522967 13.3388412,22.3623447 L6.503209,29.1030238 L6.503209,22.9572468 C6.503209,22.927744 6.50169141,22.9015905 6.49865624,22.8785013 C6.45833187,22.4468624 6.09057067,22.1087916 5.64230524,22.1087916 L3.01796882,22.1087916 C2.30268087,22.1087916 1.72079578,21.5349121 1.72079578,20.8295527 L1.72079578,2.97614922 C1.72079578,2.27078981 2.30268087,1.69698157 3.01796882,1.69698157 L33.9821034,1.69698157 C34.6974637,1.69698157 35.2792765,2.27078981 35.2792765,2.97614922 L35.2792765,20.829624 L35.2792765,20.829624 C35.2792765,21.5349121 34.6973914,22.1087916 33.9821757,22.1087916 Z" id="Shape"></path>
                        <path d="M13.1058781,6 L7.89412194,6 C7.40027465,6 7,6.44784142 7,7 C7,7.55224257 7.40027465,8 7.89412194,8 L13.1058781,8 C13.5997254,8 14,7.55215858 14,7 C14,6.44775743 13.5996503,6 13.1058781,6 Z" id="Path"></path>
                        <path d="M21.1768643,10 L7.82313574,10 C7.36849601,10 7,10.4478414 7,11 C7,11.5522426 7.36849601,12 7.82313574,12 L21.1768643,12 C21.6314349,12 22,11.5523266 22,11 C22,10.4478414 21.6314349,10 21.1768643,10 Z" id="Path"></path>
                        <path d="M30.1120558,6 L17.8879442,6 C17.397509,6 17,6.44784142 17,7 C17,7.55224257 17.397509,8 17.8879442,8 L30.1120558,8 C30.6024164,8 31,7.55215858 31,7 C31,6.44767344 30.6024164,6 30.1120558,6 Z" id="Path"></path>
                        <path d="M30.1103506,10 L26.8896494,10 C26.3983471,10 26,10.4478414 26,11 C26,11.5523266 26.3984219,12 26.8896494,12 L30.1103506,12 C30.6016529,12 31,11.5523266 31,11 C31,10.4476734 30.6016529,10 30.1103506,10 Z" id="Path"></path>
                        <path d="M15.0955087,16 L6.90449131,16 C6.40491674,16 6,16.4476734 6,17 C6,17.5522426 6.40491674,18 6.90449131,18 L15.0955087,18 C15.5950833,18 16,17.5521586 16,17 C16,16.4476734 15.5950833,16 15.0955087,16 Z" id="Path"></path>
                        <path d="M29.2345919,16 L20.7654081,16 C20.3427172,16 20,16.4476734 20,17 C20,17.5522426 20.3427815,18 20.7654081,18 L29.2345919,18 C29.6572828,18 30,17.5521586 30,17 C30,16.4476734 29.6572828,16 29.2345919,16 Z" id="Path"></path>
                    </g>
                </g>
            </g>
        </g>
    </g>
</svg>